<?xml version="1.0" encoding="utf-8" standalone="no"?>
<!DOCTYPE svg PUBLIC "-//W3C//DTD SVG 1.1//EN"
  "http://www.w3.org/Graphics/SVG/1.1/DTD/svg11.dtd">
<svg xmlns:xlink="http://www.w3.org/1999/xlink" width="864pt" height="374.4pt" viewBox="0 0 864 374.4" xmlns="http://www.w3.org/2000/svg" version="1.1">
 <metadata>
  <rdf:RDF xmlns:dc="http://purl.org/dc/elements/1.1/" xmlns:cc="http://creativecommons.org/ns#" xmlns:rdf="http://www.w3.org/1999/02/22-rdf-syntax-ns#">
   <cc:Work>
    <dc:type rdf:resource="http://purl.org/dc/dcmitype/StillImage"/>
    <dc:date>2026-07-08T07:11:32.990319</dc:date>
    <dc:format>image/svg+xml</dc:format>
    <dc:creator>
     <cc:Agent>
      <dc:title>Matplotlib v3.10.8, https://matplotlib.org/</dc:title>
     </cc:Agent>
    </dc:creator>
   </cc:Work>
  </rdf:RDF>
 </metadata>
 <defs>
  <style type="text/css">*{stroke-linejoin: round; stroke-linecap: butt}</style>
 </defs>
 <g id="figure_1">
  <g id="patch_1">
   <path d="M 0 374.4 
L 864 374.4 
L 864 0 
L 0 0 
L 0 374.4 
z
" style="fill: none; opacity: 0"/>
  </g>
  <g id="axes_1">
   <g id="patch_2">
    <path d="M 39.6 115.2 
L 799.2 82.8 
L 817.2 111.6 
L 50.4 145.44 
z
" clip-path="url(#p7b92da2d91)" style="fill: #d01813; opacity: 0.88"/>
   </g>
   <g id="patch_3">
    <path d="M 54 158.4 
L 835.2 136.8 
L 820.8 169.2 
L 64.8 185.76 
z
" clip-path="url(#p7b92da2d91)" style="fill: #d01813; opacity: 0.88"/>
   </g>
   <g id="patch_4">
    <path d="M 97.2 255.6 
L 752.4 234 
L 734.4 277.2 
L 111.6 298.8 
z
" clip-path="url(#p7b92da2d91)" style="fill: #d01813; opacity: 0.88"/>
   </g>
   <g id="patch_5">
    <path d="M 44.64 79.2 
L 217.44 79.2 
L 217.44 72 
L 44.64 72 
z
" clip-path="url(#p7b92da2d91)" style="fill: #d01813; opacity: 0.75"/>
   </g>
   <g id="patch_6">
    <path d="M 648 72 
L 799.2 72 
L 799.2 66.96 
L 648 66.96 
z
" clip-path="url(#p7b92da2d91)" style="fill: #d01813; opacity: 0.75"/>
   </g>
   <g id="patch_7">
    <path d="M 720 187.2 
L 828 187.2 
L 828 181.44 
L 720 181.44 
z
" clip-path="url(#p7b92da2d91)" style="fill: #d01813; opacity: 0.75"/>
   </g>
   <g id="patch_8">
    <path d="M 59.04 194.4 
L 188.64 194.4 
L 188.64 189.36 
L 59.04 189.36 
z
" clip-path="url(#p7b92da2d91)" style="fill: #d01813; opacity: 0.75"/>
   </g>
   <g id="patch_9">
    <path d="M 525.6 295.2 
L 720 295.2 
L 720 289.44 
L 525.6 289.44 
z
" clip-path="url(#p7b92da2d91)" style="fill: #d01813; opacity: 0.75"/>
   </g>
   <g id="patch_10">
    <path d="M 93.6 306 
L 338.4 306 
L 338.4 301.68 
L 93.6 301.68 
z
" clip-path="url(#p7b92da2d91)" style="fill: #d01813; opacity: 0.75"/>
   </g>
   <g id="patch_11">
    <path d="M 36 165.6 
L 100.8 165.6 
L 100.8 162.72 
L 36 162.72 
z
" clip-path="url(#p7b92da2d91)" style="fill: #d01813; opacity: 0.75"/>
   </g>
   <g id="patch_12">
    <path d="M 748.8 123.84 
L 813.6 123.84 
L 813.6 120.96 
L 748.8 120.96 
z
" clip-path="url(#p7b92da2d91)" style="fill: #d01813; opacity: 0.75"/>
   </g>
   <g id="patch_13">
    <path d="M 223.2 140.4 
L 276.674476 147.915347 
L 277.375908 142.924396 
L 223.901432 135.409049 
z
" clip-path="url(#p7b92da2d91)" style="opacity: 0.58"/>
   </g>
   <g id="patch_14">
    <path d="M 392.4 144 
L 460.539717 138.038547 
L 460.0377 132.300466 
L 391.897983 138.261919 
z
" clip-path="url(#p7b92da2d91)" style="opacity: 0.58"/>
   </g>
   <g id="patch_15">
    <path d="M 558 131.04 
L 608.024326 137.182215 
L 608.550802 132.894416 
L 558.526476 126.752201 
z
" clip-path="url(#p7b92da2d91)" style="opacity: 0.58"/>
   </g>
   <g id="patch_16">
    <path d="M 187.2 246.24 
L 266.351753 243.47596 
L 266.100477 236.280346 
L 186.948724 239.044386 
z
" clip-path="url(#p7b92da2d91)" style="opacity: 0.58"/>
   </g>
   <g id="patch_17">
    <path d="M 414 250.56 
L 507.371995 257.089206 
L 507.824017 250.624991 
L 414.452022 244.095785 
z
" clip-path="url(#p7b92da2d91)" style="opacity: 0.58"/>
   </g>
   <g id="patch_18">
    <path d="M 599.76 249.84 
L 664.40215 245.319781 
L 664.000353 239.573812 
L 599.358203 244.094031 
z
" clip-path="url(#p7b92da2d91)" style="opacity: 0.58"/>
   </g>
   <g id="patch_19">
    <path d="M 327.6 93.6 
L 377.969298 91.841065 
L 377.818532 87.523697 
L 327.449234 89.282632 
z
" clip-path="url(#p7b92da2d91)" style="opacity: 0.58"/>
   </g>
   <g id="text_1">
    <path d="M 72.296159 74.253378 
L 75.104588 20.665357 
L 86.326063 21.25345 
L 83.972417 66.163692 
L 112.732012 67.670919 
L 112.277228 76.348697 
L 72.296159 74.253378 
z
M 164.372806 79.078911 
L 166.075212 46.595053 
Q 166.132618 45.499681 166.215004 44.393414 
Q 166.297389 43.287147 167.076371 34.943669 
Q 163.838664 45.025537 162.336796 48.99863 
L 151.106636 78.383661 
L 143.122593 77.965235 
L 135.025526 47.567308 
L 131.695863 33.089455 
Q 131.695916 41.937521 131.54666 44.785488 
L 129.844253 77.269346 
L 119.87637 76.746952 
L 122.684799 23.15893 
L 137.715734 23.946668 
L 145.723779 54.413155 
L 146.411757 57.353816 
L 147.861048 64.630264 
L 150.709013 56.163336 
L 162.203379 25.230011 
L 177.149118 26.013284 
L 174.340689 79.601306 
L 164.372806 79.078911 
z
M 210.207984 73.389629 
Q 220.3706 73.92223 224.859985 63.942572 
L 234.439869 68.142512 
Q 230.880687 75.742279 224.572578 79.207199 
Q 218.264468 82.67212 209.744909 82.225628 
Q 196.819522 81.548238 190.144442 73.851468 
Q 183.481533 66.155336 184.171043 52.998704 
Q 184.862466 39.805559 192.03653 33.090881 
Q 199.211231 26.364032 212.148789 27.042061 
Q 221.581157 27.53639 227.309965 31.632138 
Q 233.050945 35.728524 235.063972 43.193171 
L 225.027512 45.37652 
Q 223.985046 41.282288 220.433845 38.716354 
Q 216.895453 36.138886 211.917596 35.878008 
Q 204.310848 35.479355 200.120026 39.994963 
Q 195.942013 44.499038 195.465543 53.590623 
Q 194.981419 62.828259 198.766986 67.908342 
Q 202.564724 72.989063 210.207984 73.389629 
z
" style="fill: #f6f1e9; stroke: #000000; stroke-width: 11"/>
    <path d="M 72.296159 74.253378 
L 75.104588 20.665357 
L 86.326063 21.25345 
L 83.972417 66.163692 
L 112.732012 67.670919 
L 112.277228 76.348697 
L 72.296159 74.253378 
z
M 164.372806 79.078911 
L 166.075212 46.595053 
Q 166.132618 45.499681 166.215004 44.393414 
Q 166.297389 43.287147 167.076371 34.943669 
Q 163.838664 45.025537 162.336796 48.99863 
L 151.106636 78.383661 
L 143.122593 77.965235 
L 135.025526 47.567308 
L 131.695863 33.089455 
Q 131.695916 41.937521 131.54666 44.785488 
L 129.844253 77.269346 
L 119.87637 76.746952 
L 122.684799 23.15893 
L 137.715734 23.946668 
L 145.723779 54.413155 
L 146.411757 57.353816 
L 147.861048 64.630264 
L 150.709013 56.163336 
L 162.203379 25.230011 
L 177.149118 26.013284 
L 174.340689 79.601306 
L 164.372806 79.078911 
z
M 210.207984 73.389629 
Q 220.3706 73.92223 224.859985 63.942572 
L 234.439869 68.142512 
Q 230.880687 75.742279 224.572578 79.207199 
Q 218.264468 82.67212 209.744909 82.225628 
Q 196.819522 81.548238 190.144442 73.851468 
Q 183.481533 66.155336 184.171043 52.998704 
Q 184.862466 39.805559 192.03653 33.090881 
Q 199.211231 26.364032 212.148789 27.042061 
Q 221.581157 27.53639 227.309965 31.632138 
Q 233.050945 35.728524 235.063972 43.193171 
L 225.027512 45.37652 
Q 223.985046 41.282288 220.433845 38.716354 
Q 216.895453 36.138886 211.917596 35.878008 
Q 204.310848 35.479355 200.120026 39.994963 
Q 195.942013 44.499038 195.465543 53.590623 
Q 194.981419 62.828259 198.766986 67.908342 
Q 202.564724 72.989063 210.207984 73.389629 
z
" style="fill: #f6f1e9"/>
    <path d="M 72.296159 74.253378 
L 75.104588 20.665357 
L 86.326063 21.25345 
L 83.972417 66.163692 
L 112.732012 67.670919 
L 112.277228 76.348697 
L 72.296159 74.253378 
z
M 164.372806 79.078911 
L 166.075212 46.595053 
Q 166.132618 45.499681 166.215004 44.393414 
Q 166.297389 43.287147 167.076371 34.943669 
Q 163.838664 45.025537 162.336796 48.99863 
L 151.106636 78.383661 
L 143.122593 77.965235 
L 135.025526 47.567308 
L 131.695863 33.089455 
Q 131.695916 41.937521 131.54666 44.785488 
L 129.844253 77.269346 
L 119.87637 76.746952 
L 122.684799 23.15893 
L 137.715734 23.946668 
L 145.723779 54.413155 
L 146.411757 57.353816 
L 147.861048 64.630264 
L 150.709013 56.163336 
L 162.203379 25.230011 
L 177.149118 26.013284 
L 174.340689 79.601306 
L 164.372806 79.078911 
z
M 210.207984 73.389629 
Q 220.3706 73.92223 224.859985 63.942572 
L 234.439869 68.142512 
Q 230.880687 75.742279 224.572578 79.207199 
Q 218.264468 82.67212 209.744909 82.225628 
Q 196.819522 81.548238 190.144442 73.851468 
Q 183.481533 66.155336 184.171043 52.998704 
Q 184.862466 39.805559 192.03653 33.090881 
Q 199.211231 26.364032 212.148789 27.042061 
Q 221.581157 27.53639 227.309965 31.632138 
Q 233.050945 35.728524 235.063972 43.193171 
L 225.027512 45.37652 
Q 223.985046 41.282288 220.433845 38.716354 
Q 216.895453 36.138886 211.917596 35.878008 
Q 204.310848 35.479355 200.120026 39.994963 
Q 195.942013 44.499038 195.465543 53.590623 
Q 194.981419 62.828259 198.766986 67.908342 
Q 202.564724 72.989063 210.207984 73.389629 
z
" style="fill: #f6f1e9; stroke: #d01813; stroke-width: 3"/>
    <path d="M 72.296159 74.253378 
L 75.104588 20.665357 
L 86.326063 21.25345 
L 83.972417 66.163692 
L 112.732012 67.670919 
L 112.277228 76.348697 
L 72.296159 74.253378 
z
M 164.372806 79.078911 
L 166.075212 46.595053 
Q 166.132618 45.499681 166.215004 44.393414 
Q 166.297389 43.287147 167.076371 34.943669 
Q 163.838664 45.025537 162.336796 48.99863 
L 151.106636 78.383661 
L 143.122593 77.965235 
L 135.025526 47.567308 
L 131.695863 33.089455 
Q 131.695916 41.937521 131.54666 44.785488 
L 129.844253 77.269346 
L 119.87637 76.746952 
L 122.684799 23.15893 
L 137.715734 23.946668 
L 145.723779 54.413155 
L 146.411757 57.353816 
L 147.861048 64.630264 
L 150.709013 56.163336 
L 162.203379 25.230011 
L 177.149118 26.013284 
L 174.340689 79.601306 
L 164.372806 79.078911 
z
M 210.207984 73.389629 
Q 220.3706 73.92223 224.859985 63.942572 
L 234.439869 68.142512 
Q 230.880687 75.742279 224.572578 79.207199 
Q 218.264468 82.67212 209.744909 82.225628 
Q 196.819522 81.548238 190.144442 73.851468 
Q 183.481533 66.155336 184.171043 52.998704 
Q 184.862466 39.805559 192.03653 33.090881 
Q 199.211231 26.364032 212.148789 27.042061 
Q 221.581157 27.53639 227.309965 31.632138 
Q 233.050945 35.728524 235.063972 43.193171 
L 225.027512 45.37652 
Q 223.985046 41.282288 220.433845 38.716354 
Q 216.895453 36.138886 211.917596 35.878008 
Q 204.310848 35.479355 200.120026 39.994963 
Q 195.942013 44.499038 195.465543 53.590623 
Q 194.981419 62.828259 198.766986 67.908342 
Q 202.564724 72.989063 210.207984 73.389629 
z
" style="fill: #f6f1e9"/>
   </g>
   <g id="text_2">
    <path d="M 163.875625 121.92875 
Q 163.875625 137.08625 160.20375 149.4825 
Q 156.531875 161.849375 149.599375 170.661875 
Q 142.666875 179.474375 132.70875 184.2625 
Q 122.750625 189.050625 110.14875 189.050625 
Q 96.841875 189.050625 86.825 184.056875 
Q 76.8375 179.03375 70.14 170.074375 
Q 63.4425 161.115 60.09375 148.83625 
Q 56.745 136.528125 56.745 121.92875 
Q 56.745 106.77125 60.21125 94.580625 
Q 63.706875 82.360625 70.55125 73.783125 
Q 77.395625 65.205625 87.35375 60.564375 
Q 97.311875 55.923125 110.26625 55.923125 
Q 123.19125 55.923125 133.17875 60.623125 
Q 143.195625 65.29375 149.98125 73.93 
Q 156.79625 82.536875 160.32125 94.7275 
Q 163.875625 106.88875 163.875625 121.92875 
z
M 141.198125 121.92875 
Q 141.198125 111.735625 139.200625 103.54 
Q 137.2325 95.315 133.325625 89.44 
Q 129.448125 83.565 123.66125 80.3925 
Q 117.874375 77.22 110.26625 77.22 
Q 102.4525 77.22 96.665625 80.3925 
Q 90.87875 83.565 86.913125 89.44 
Q 82.976875 95.315 81.038125 103.54 
Q 79.12875 111.735625 79.12875 121.92875 
Q 79.12875 132.03375 81.096875 140.435 
Q 83.094375 148.83625 86.971875 154.8875 
Q 90.87875 160.93875 96.695 164.34625 
Q 102.540625 167.724375 110.14875 167.724375 
Q 118.344375 167.724375 124.160625 164.2875 
Q 129.976875 160.850625 133.795625 154.740625 
Q 137.614375 148.630625 139.40625 140.25875 
Q 141.198125 131.8575 141.198125 121.92875 
z
M 274.659766 150.305 
Q 274.659766 160.11625 271.399141 167.136875 
Q 268.138516 174.1575 262.527891 178.6225 
Q 256.946641 183.058125 249.514766 185.14375 
Q 242.082891 187.2 233.711016 187.2 
L 180.659766 187.2 
L 180.659766 57.861875 
L 229.216641 57.861875 
Q 238.587266 57.861875 245.931016 59.83 
Q 253.274766 61.798125 258.327266 65.851875 
Q 263.379766 69.87625 265.935391 75.98625 
Q 268.520391 82.09625 268.520391 90.350625 
Q 268.520391 101.36625 263.497266 108.945 
Q 258.503516 116.52375 248.310391 119.1675 
Q 261.176641 121.018125 267.903516 129.066875 
Q 274.659766 137.08625 274.659766 150.305 
z
M 246.195391 94.0225 
Q 246.195391 85.298125 241.642266 81.62625 
Q 237.118516 77.954375 228.129766 77.954375 
L 202.867266 77.954375 
L 202.867266 110.0025 
L 228.306016 110.0025 
Q 237.676641 110.0025 241.936016 106.0075 
Q 246.195391 102.0125 246.195391 94.0225 
z
M 252.364141 148.19 
Q 252.364141 143.049375 250.689766 139.55375 
Q 249.044766 136.058125 246.136641 133.9725 
Q 243.257891 131.8575 239.409766 130.946875 
Q 235.561641 130.006875 230.979141 130.006875 
L 202.867266 130.006875 
L 202.867266 167.1075 
L 231.889766 167.1075 
Q 236.296016 167.1075 239.997266 166.22625 
Q 243.727891 165.345 246.459766 163.200625 
Q 249.221016 161.026875 250.777891 157.355 
Q 252.364141 153.683125 252.364141 148.19 
z
M 287.687578 149.65875 
L 287.687578 127.245625 
L 326.815078 127.245625 
L 326.815078 149.65875 
L 287.687578 149.65875 
z
M 429.712031 149.923125 
Q 429.712031 158.735625 427.097656 165.961875 
Q 424.483281 173.15875 418.931406 178.299375 
Q 413.379531 183.44 404.772656 186.26 
Q 396.195156 189.050625 384.268906 189.050625 
Q 373.723281 189.050625 365.674531 186.759375 
Q 357.655156 184.43875 351.868281 179.944375 
Q 346.081406 175.45 342.527031 168.81125 
Q 339.002031 162.143125 337.357031 153.506875 
L 358.830156 149.18875 
Q 359.770156 153.506875 361.503281 157.090625 
Q 363.236406 160.674375 366.262031 163.28875 
Q 369.317031 165.903125 373.840781 167.3425 
Q 378.393906 168.7525 384.915156 168.7525 
Q 396.195156 168.7525 402.158281 164.58125 
Q 408.121406 160.380625 408.121406 151.48 
Q 408.121406 146.163125 405.742031 142.785 
Q 403.362656 139.3775 399.367656 137.174375 
Q 395.372656 134.97125 390.173281 133.5025 
Q 385.003281 132.03375 379.304531 130.653125 
Q 379.304531 130.653125 370.227656 127.98 
Q 365.733281 126.599375 361.650156 124.69 
Q 357.567031 122.75125 354.012656 120.1075 
Q 350.487656 117.434375 347.873281 113.5275 
Q 345.258906 109.620625 343.790156 104.391875 
Q 342.321406 99.163125 342.321406 92.08375 
Q 342.321406 82.44875 345.464531 75.575 
Q 348.637031 68.70125 354.277031 64.35375 
Q 359.946406 59.976875 367.642656 57.95 
Q 375.368281 55.923125 384.533281 55.923125 
Q 394.902656 55.923125 402.334531 57.920625 
Q 409.795781 59.88875 414.789531 63.9425 
Q 419.783281 67.966875 422.662031 74.076875 
Q 425.570156 80.1575 426.950781 88.32375 
L 405.477656 91.9075 
Q 403.832656 83.565 398.721406 79.335 
Q 393.639531 75.105 384.180781 75.105 
Q 378.305781 75.105 374.398906 76.368125 
Q 370.492031 77.601875 368.200781 79.716875 
Q 365.909531 81.8025 364.940156 84.6225 
Q 363.970781 87.413125 363.970781 90.526875 
Q 363.970781 95.315 365.850781 98.399375 
Q 367.730781 101.454375 371.138281 103.54 
Q 374.545781 105.59625 379.216406 107.035625 
Q 383.887031 108.445625 389.585781 109.914375 
Q 394.550156 111.1775 399.397031 112.616875 
Q 404.273281 114.026875 408.708906 115.965625 
Q 413.173906 117.904375 417.022031 120.665625 
Q 420.899531 123.3975 423.690156 127.3925 
Q 426.480781 131.3875 428.096406 136.91 
Q 429.712031 142.403125 429.712031 149.923125 
z
M 549.238906 121.92875 
Q 549.238906 137.08625 545.567031 149.4825 
Q 541.895156 161.849375 534.962656 170.661875 
Q 528.030156 179.474375 518.072031 184.2625 
Q 508.113906 189.050625 495.512031 189.050625 
Q 482.205156 189.050625 472.188281 184.056875 
Q 462.200781 179.03375 455.503281 170.074375 
Q 448.805781 161.115 445.457031 148.83625 
Q 442.108281 136.528125 442.108281 121.92875 
Q 442.108281 106.77125 445.574531 94.580625 
Q 449.070156 82.360625 455.914531 73.783125 
Q 462.758906 65.205625 472.717031 60.564375 
Q 482.675156 55.923125 495.629531 55.923125 
Q 508.554531 55.923125 518.542031 60.623125 
Q 528.558906 65.29375 535.344531 73.93 
Q 542.159531 82.536875 545.684531 94.7275 
Q 549.238906 106.88875 549.238906 121.92875 
z
M 526.561406 121.92875 
Q 526.561406 111.735625 524.563906 103.54 
Q 522.595781 95.315 518.688906 89.44 
Q 514.811406 83.565 509.024531 80.3925 
Q 503.237656 77.22 495.629531 77.22 
Q 487.815781 77.22 482.028906 80.3925 
Q 476.242031 83.565 472.276406 89.44 
Q 468.340156 95.315 466.401406 103.54 
Q 464.492031 111.735625 464.492031 121.92875 
Q 464.492031 132.03375 466.460156 140.435 
Q 468.457656 148.83625 472.335156 154.8875 
Q 476.242031 160.93875 482.058281 164.34625 
Q 487.903906 167.724375 495.512031 167.724375 
Q 503.707656 167.724375 509.523906 164.2875 
Q 515.340156 160.850625 519.158906 154.740625 
Q 522.977656 148.630625 524.769531 140.25875 
Q 526.561406 131.8575 526.561406 121.92875 
z
M 630.559922 187.2 
L 584.382422 87.589375 
Q 584.764297 91.643125 585.116797 95.6675 
Q 585.381172 99.163125 585.557422 103.216875 
Q 585.763047 107.24125 585.763047 110.913125 
L 585.763047 187.2 
L 566.023047 187.2 
L 566.023047 57.861875 
L 591.373672 57.861875 
L 638.256172 158.295 
Q 637.903672 154.4175 637.639297 150.216875 
Q 637.345547 146.633125 637.110547 142.13875 
Q 636.904922 137.615 636.904922 133.0325 
L 636.904922 57.861875 
L 656.615547 57.861875 
L 656.615547 187.2 
L 630.559922 187.2 
z
M 677.280859 187.2 
L 677.280859 57.861875 
L 699.576484 57.861875 
L 699.576484 187.2 
L 677.280859 187.2 
z
M 769.6175 167.724375 
Q 775.874375 167.724375 780.456875 165.58 
Q 785.039375 163.435625 788.388125 159.94 
Q 791.76625 156.444375 793.969375 152.038125 
Q 796.1725 147.631875 797.64125 143.1375 
L 816.91125 152.038125 
Q 814.62 159.029375 810.830625 165.726875 
Q 807.070625 172.424375 801.430625 177.565 
Q 795.790625 182.705625 787.976875 185.878125 
Q 780.1925 189.050625 769.6175 189.050625 
Q 755.87 189.050625 745.794375 184.056875 
Q 735.748125 179.03375 729.13875 170.074375 
Q 722.529375 161.115 719.356875 148.83625 
Q 716.21375 136.528125 716.21375 121.92875 
Q 716.21375 106.77125 719.356875 94.580625 
Q 722.529375 82.360625 728.991875 73.783125 
Q 735.48375 65.205625 745.383125 60.564375 
Q 755.311875 55.923125 768.706875 55.923125 
Q 779.07625 55.923125 786.89 58.59625 
Q 794.70375 61.24 800.34375 66.086875 
Q 805.98375 70.904375 809.685 77.455 
Q 813.415625 84.005625 815.530625 91.9075 
L 795.966875 98.42875 
Q 794.968125 94.286875 792.765 90.4975 
Q 790.561875 86.67875 787.213125 83.74125 
Q 783.864375 80.80375 779.37 79.011875 
Q 774.875625 77.22 769.176875 77.22 
Q 761.09875 77.22 755.311875 80.3925 
Q 749.525 83.565 745.794375 89.44 
Q 742.093125 95.315 740.30125 103.54 
Q 738.509375 111.735625 738.509375 121.92875 
Q 738.509375 132.03375 740.30125 140.435 
Q 742.093125 148.83625 745.853125 154.8875 
Q 749.613125 160.93875 755.488125 164.34625 
Q 761.363125 167.724375 769.6175 167.724375 
z
" style="fill: #f6f1e9; stroke: #000000; stroke-width: 22"/>
    <path d="M 163.875625 121.92875 
Q 163.875625 137.08625 160.20375 149.4825 
Q 156.531875 161.849375 149.599375 170.661875 
Q 142.666875 179.474375 132.70875 184.2625 
Q 122.750625 189.050625 110.14875 189.050625 
Q 96.841875 189.050625 86.825 184.056875 
Q 76.8375 179.03375 70.14 170.074375 
Q 63.4425 161.115 60.09375 148.83625 
Q 56.745 136.528125 56.745 121.92875 
Q 56.745 106.77125 60.21125 94.580625 
Q 63.706875 82.360625 70.55125 73.783125 
Q 77.395625 65.205625 87.35375 60.564375 
Q 97.311875 55.923125 110.26625 55.923125 
Q 123.19125 55.923125 133.17875 60.623125 
Q 143.195625 65.29375 149.98125 73.93 
Q 156.79625 82.536875 160.32125 94.7275 
Q 163.875625 106.88875 163.875625 121.92875 
z
M 141.198125 121.92875 
Q 141.198125 111.735625 139.200625 103.54 
Q 137.2325 95.315 133.325625 89.44 
Q 129.448125 83.565 123.66125 80.3925 
Q 117.874375 77.22 110.26625 77.22 
Q 102.4525 77.22 96.665625 80.3925 
Q 90.87875 83.565 86.913125 89.44 
Q 82.976875 95.315 81.038125 103.54 
Q 79.12875 111.735625 79.12875 121.92875 
Q 79.12875 132.03375 81.096875 140.435 
Q 83.094375 148.83625 86.971875 154.8875 
Q 90.87875 160.93875 96.695 164.34625 
Q 102.540625 167.724375 110.14875 167.724375 
Q 118.344375 167.724375 124.160625 164.2875 
Q 129.976875 160.850625 133.795625 154.740625 
Q 137.614375 148.630625 139.40625 140.25875 
Q 141.198125 131.8575 141.198125 121.92875 
z
M 274.659766 150.305 
Q 274.659766 160.11625 271.399141 167.136875 
Q 268.138516 174.1575 262.527891 178.6225 
Q 256.946641 183.058125 249.514766 185.14375 
Q 242.082891 187.2 233.711016 187.2 
L 180.659766 187.2 
L 180.659766 57.861875 
L 229.216641 57.861875 
Q 238.587266 57.861875 245.931016 59.83 
Q 253.274766 61.798125 258.327266 65.851875 
Q 263.379766 69.87625 265.935391 75.98625 
Q 268.520391 82.09625 268.520391 90.350625 
Q 268.520391 101.36625 263.497266 108.945 
Q 258.503516 116.52375 248.310391 119.1675 
Q 261.176641 121.018125 267.903516 129.066875 
Q 274.659766 137.08625 274.659766 150.305 
z
M 246.195391 94.0225 
Q 246.195391 85.298125 241.642266 81.62625 
Q 237.118516 77.954375 228.129766 77.954375 
L 202.867266 77.954375 
L 202.867266 110.0025 
L 228.306016 110.0025 
Q 237.676641 110.0025 241.936016 106.0075 
Q 246.195391 102.0125 246.195391 94.0225 
z
M 252.364141 148.19 
Q 252.364141 143.049375 250.689766 139.55375 
Q 249.044766 136.058125 246.136641 133.9725 
Q 243.257891 131.8575 239.409766 130.946875 
Q 235.561641 130.006875 230.979141 130.006875 
L 202.867266 130.006875 
L 202.867266 167.1075 
L 231.889766 167.1075 
Q 236.296016 167.1075 239.997266 166.22625 
Q 243.727891 165.345 246.459766 163.200625 
Q 249.221016 161.026875 250.777891 157.355 
Q 252.364141 153.683125 252.364141 148.19 
z
M 287.687578 149.65875 
L 287.687578 127.245625 
L 326.815078 127.245625 
L 326.815078 149.65875 
L 287.687578 149.65875 
z
M 429.712031 149.923125 
Q 429.712031 158.735625 427.097656 165.961875 
Q 424.483281 173.15875 418.931406 178.299375 
Q 413.379531 183.44 404.772656 186.26 
Q 396.195156 189.050625 384.268906 189.050625 
Q 373.723281 189.050625 365.674531 186.759375 
Q 357.655156 184.43875 351.868281 179.944375 
Q 346.081406 175.45 342.527031 168.81125 
Q 339.002031 162.143125 337.357031 153.506875 
L 358.830156 149.18875 
Q 359.770156 153.506875 361.503281 157.090625 
Q 363.236406 160.674375 366.262031 163.28875 
Q 369.317031 165.903125 373.840781 167.3425 
Q 378.393906 168.7525 384.915156 168.7525 
Q 396.195156 168.7525 402.158281 164.58125 
Q 408.121406 160.380625 408.121406 151.48 
Q 408.121406 146.163125 405.742031 142.785 
Q 403.362656 139.3775 399.367656 137.174375 
Q 395.372656 134.97125 390.173281 133.5025 
Q 385.003281 132.03375 379.304531 130.653125 
Q 379.304531 130.653125 370.227656 127.98 
Q 365.733281 126.599375 361.650156 124.69 
Q 357.567031 122.75125 354.012656 120.1075 
Q 350.487656 117.434375 347.873281 113.5275 
Q 345.258906 109.620625 343.790156 104.391875 
Q 342.321406 99.163125 342.321406 92.08375 
Q 342.321406 82.44875 345.464531 75.575 
Q 348.637031 68.70125 354.277031 64.35375 
Q 359.946406 59.976875 367.642656 57.95 
Q 375.368281 55.923125 384.533281 55.923125 
Q 394.902656 55.923125 402.334531 57.920625 
Q 409.795781 59.88875 414.789531 63.9425 
Q 419.783281 67.966875 422.662031 74.076875 
Q 425.570156 80.1575 426.950781 88.32375 
L 405.477656 91.9075 
Q 403.832656 83.565 398.721406 79.335 
Q 393.639531 75.105 384.180781 75.105 
Q 378.305781 75.105 374.398906 76.368125 
Q 370.492031 77.601875 368.200781 79.716875 
Q 365.909531 81.8025 364.940156 84.6225 
Q 363.970781 87.413125 363.970781 90.526875 
Q 363.970781 95.315 365.850781 98.399375 
Q 367.730781 101.454375 371.138281 103.54 
Q 374.545781 105.59625 379.216406 107.035625 
Q 383.887031 108.445625 389.585781 109.914375 
Q 394.550156 111.1775 399.397031 112.616875 
Q 404.273281 114.026875 408.708906 115.965625 
Q 413.173906 117.904375 417.022031 120.665625 
Q 420.899531 123.3975 423.690156 127.3925 
Q 426.480781 131.3875 428.096406 136.91 
Q 429.712031 142.403125 429.712031 149.923125 
z
M 549.238906 121.92875 
Q 549.238906 137.08625 545.567031 149.4825 
Q 541.895156 161.849375 534.962656 170.661875 
Q 528.030156 179.474375 518.072031 184.2625 
Q 508.113906 189.050625 495.512031 189.050625 
Q 482.205156 189.050625 472.188281 184.056875 
Q 462.200781 179.03375 455.503281 170.074375 
Q 448.805781 161.115 445.457031 148.83625 
Q 442.108281 136.528125 442.108281 121.92875 
Q 442.108281 106.77125 445.574531 94.580625 
Q 449.070156 82.360625 455.914531 73.783125 
Q 462.758906 65.205625 472.717031 60.564375 
Q 482.675156 55.923125 495.629531 55.923125 
Q 508.554531 55.923125 518.542031 60.623125 
Q 528.558906 65.29375 535.344531 73.93 
Q 542.159531 82.536875 545.684531 94.7275 
Q 549.238906 106.88875 549.238906 121.92875 
z
M 526.561406 121.92875 
Q 526.561406 111.735625 524.563906 103.54 
Q 522.595781 95.315 518.688906 89.44 
Q 514.811406 83.565 509.024531 80.3925 
Q 503.237656 77.22 495.629531 77.22 
Q 487.815781 77.22 482.028906 80.3925 
Q 476.242031 83.565 472.276406 89.44 
Q 468.340156 95.315 466.401406 103.54 
Q 464.492031 111.735625 464.492031 121.92875 
Q 464.492031 132.03375 466.460156 140.435 
Q 468.457656 148.83625 472.335156 154.8875 
Q 476.242031 160.93875 482.058281 164.34625 
Q 487.903906 167.724375 495.512031 167.724375 
Q 503.707656 167.724375 509.523906 164.2875 
Q 515.340156 160.850625 519.158906 154.740625 
Q 522.977656 148.630625 524.769531 140.25875 
Q 526.561406 131.8575 526.561406 121.92875 
z
M 630.559922 187.2 
L 584.382422 87.589375 
Q 584.764297 91.643125 585.116797 95.6675 
Q 585.381172 99.163125 585.557422 103.216875 
Q 585.763047 107.24125 585.763047 110.913125 
L 585.763047 187.2 
L 566.023047 187.2 
L 566.023047 57.861875 
L 591.373672 57.861875 
L 638.256172 158.295 
Q 637.903672 154.4175 637.639297 150.216875 
Q 637.345547 146.633125 637.110547 142.13875 
Q 636.904922 137.615 636.904922 133.0325 
L 636.904922 57.861875 
L 656.615547 57.861875 
L 656.615547 187.2 
L 630.559922 187.2 
z
M 677.280859 187.2 
L 677.280859 57.861875 
L 699.576484 57.861875 
L 699.576484 187.2 
L 677.280859 187.2 
z
M 769.6175 167.724375 
Q 775.874375 167.724375 780.456875 165.58 
Q 785.039375 163.435625 788.388125 159.94 
Q 791.76625 156.444375 793.969375 152.038125 
Q 796.1725 147.631875 797.64125 143.1375 
L 816.91125 152.038125 
Q 814.62 159.029375 810.830625 165.726875 
Q 807.070625 172.424375 801.430625 177.565 
Q 795.790625 182.705625 787.976875 185.878125 
Q 780.1925 189.050625 769.6175 189.050625 
Q 755.87 189.050625 745.794375 184.056875 
Q 735.748125 179.03375 729.13875 170.074375 
Q 722.529375 161.115 719.356875 148.83625 
Q 716.21375 136.528125 716.21375 121.92875 
Q 716.21375 106.77125 719.356875 94.580625 
Q 722.529375 82.360625 728.991875 73.783125 
Q 735.48375 65.205625 745.383125 60.564375 
Q 755.311875 55.923125 768.706875 55.923125 
Q 779.07625 55.923125 786.89 58.59625 
Q 794.70375 61.24 800.34375 66.086875 
Q 805.98375 70.904375 809.685 77.455 
Q 813.415625 84.005625 815.530625 91.9075 
L 795.966875 98.42875 
Q 794.968125 94.286875 792.765 90.4975 
Q 790.561875 86.67875 787.213125 83.74125 
Q 783.864375 80.80375 779.37 79.011875 
Q 774.875625 77.22 769.176875 77.22 
Q 761.09875 77.22 755.311875 80.3925 
Q 749.525 83.565 745.794375 89.44 
Q 742.093125 95.315 740.30125 103.54 
Q 738.509375 111.735625 738.509375 121.92875 
Q 738.509375 132.03375 740.30125 140.435 
Q 742.093125 148.83625 745.853125 154.8875 
Q 749.613125 160.93875 755.488125 164.34625 
Q 761.363125 167.724375 769.6175 167.724375 
z
" style="fill: #f6f1e9"/>
    <path d="M 163.875625 121.92875 
Q 163.875625 137.08625 160.20375 149.4825 
Q 156.531875 161.849375 149.599375 170.661875 
Q 142.666875 179.474375 132.70875 184.2625 
Q 122.750625 189.050625 110.14875 189.050625 
Q 96.841875 189.050625 86.825 184.056875 
Q 76.8375 179.03375 70.14 170.074375 
Q 63.4425 161.115 60.09375 148.83625 
Q 56.745 136.528125 56.745 121.92875 
Q 56.745 106.77125 60.21125 94.580625 
Q 63.706875 82.360625 70.55125 73.783125 
Q 77.395625 65.205625 87.35375 60.564375 
Q 97.311875 55.923125 110.26625 55.923125 
Q 123.19125 55.923125 133.17875 60.623125 
Q 143.195625 65.29375 149.98125 73.93 
Q 156.79625 82.536875 160.32125 94.7275 
Q 163.875625 106.88875 163.875625 121.92875 
z
M 141.198125 121.92875 
Q 141.198125 111.735625 139.200625 103.54 
Q 137.2325 95.315 133.325625 89.44 
Q 129.448125 83.565 123.66125 80.3925 
Q 117.874375 77.22 110.26625 77.22 
Q 102.4525 77.22 96.665625 80.3925 
Q 90.87875 83.565 86.913125 89.44 
Q 82.976875 95.315 81.038125 103.54 
Q 79.12875 111.735625 79.12875 121.92875 
Q 79.12875 132.03375 81.096875 140.435 
Q 83.094375 148.83625 86.971875 154.8875 
Q 90.87875 160.93875 96.695 164.34625 
Q 102.540625 167.724375 110.14875 167.724375 
Q 118.344375 167.724375 124.160625 164.2875 
Q 129.976875 160.850625 133.795625 154.740625 
Q 137.614375 148.630625 139.40625 140.25875 
Q 141.198125 131.8575 141.198125 121.92875 
z
M 274.659766 150.305 
Q 274.659766 160.11625 271.399141 167.136875 
Q 268.138516 174.1575 262.527891 178.6225 
Q 256.946641 183.058125 249.514766 185.14375 
Q 242.082891 187.2 233.711016 187.2 
L 180.659766 187.2 
L 180.659766 57.861875 
L 229.216641 57.861875 
Q 238.587266 57.861875 245.931016 59.83 
Q 253.274766 61.798125 258.327266 65.851875 
Q 263.379766 69.87625 265.935391 75.98625 
Q 268.520391 82.09625 268.520391 90.350625 
Q 268.520391 101.36625 263.497266 108.945 
Q 258.503516 116.52375 248.310391 119.1675 
Q 261.176641 121.018125 267.903516 129.066875 
Q 274.659766 137.08625 274.659766 150.305 
z
M 246.195391 94.0225 
Q 246.195391 85.298125 241.642266 81.62625 
Q 237.118516 77.954375 228.129766 77.954375 
L 202.867266 77.954375 
L 202.867266 110.0025 
L 228.306016 110.0025 
Q 237.676641 110.0025 241.936016 106.0075 
Q 246.195391 102.0125 246.195391 94.0225 
z
M 252.364141 148.19 
Q 252.364141 143.049375 250.689766 139.55375 
Q 249.044766 136.058125 246.136641 133.9725 
Q 243.257891 131.8575 239.409766 130.946875 
Q 235.561641 130.006875 230.979141 130.006875 
L 202.867266 130.006875 
L 202.867266 167.1075 
L 231.889766 167.1075 
Q 236.296016 167.1075 239.997266 166.22625 
Q 243.727891 165.345 246.459766 163.200625 
Q 249.221016 161.026875 250.777891 157.355 
Q 252.364141 153.683125 252.364141 148.19 
z
M 287.687578 149.65875 
L 287.687578 127.245625 
L 326.815078 127.245625 
L 326.815078 149.65875 
L 287.687578 149.65875 
z
M 429.712031 149.923125 
Q 429.712031 158.735625 427.097656 165.961875 
Q 424.483281 173.15875 418.931406 178.299375 
Q 413.379531 183.44 404.772656 186.26 
Q 396.195156 189.050625 384.268906 189.050625 
Q 373.723281 189.050625 365.674531 186.759375 
Q 357.655156 184.43875 351.868281 179.944375 
Q 346.081406 175.45 342.527031 168.81125 
Q 339.002031 162.143125 337.357031 153.506875 
L 358.830156 149.18875 
Q 359.770156 153.506875 361.503281 157.090625 
Q 363.236406 160.674375 366.262031 163.28875 
Q 369.317031 165.903125 373.840781 167.3425 
Q 378.393906 168.7525 384.915156 168.7525 
Q 396.195156 168.7525 402.158281 164.58125 
Q 408.121406 160.380625 408.121406 151.48 
Q 408.121406 146.163125 405.742031 142.785 
Q 403.362656 139.3775 399.367656 137.174375 
Q 395.372656 134.97125 390.173281 133.5025 
Q 385.003281 132.03375 379.304531 130.653125 
Q 379.304531 130.653125 370.227656 127.98 
Q 365.733281 126.599375 361.650156 124.69 
Q 357.567031 122.75125 354.012656 120.1075 
Q 350.487656 117.434375 347.873281 113.5275 
Q 345.258906 109.620625 343.790156 104.391875 
Q 342.321406 99.163125 342.321406 92.08375 
Q 342.321406 82.44875 345.464531 75.575 
Q 348.637031 68.70125 354.277031 64.35375 
Q 359.946406 59.976875 367.642656 57.95 
Q 375.368281 55.923125 384.533281 55.923125 
Q 394.902656 55.923125 402.334531 57.920625 
Q 409.795781 59.88875 414.789531 63.9425 
Q 419.783281 67.966875 422.662031 74.076875 
Q 425.570156 80.1575 426.950781 88.32375 
L 405.477656 91.9075 
Q 403.832656 83.565 398.721406 79.335 
Q 393.639531 75.105 384.180781 75.105 
Q 378.305781 75.105 374.398906 76.368125 
Q 370.492031 77.601875 368.200781 79.716875 
Q 365.909531 81.8025 364.940156 84.6225 
Q 363.970781 87.413125 363.970781 90.526875 
Q 363.970781 95.315 365.850781 98.399375 
Q 367.730781 101.454375 371.138281 103.54 
Q 374.545781 105.59625 379.216406 107.035625 
Q 383.887031 108.445625 389.585781 109.914375 
Q 394.550156 111.1775 399.397031 112.616875 
Q 404.273281 114.026875 408.708906 115.965625 
Q 413.173906 117.904375 417.022031 120.665625 
Q 420.899531 123.3975 423.690156 127.3925 
Q 426.480781 131.3875 428.096406 136.91 
Q 429.712031 142.403125 429.712031 149.923125 
z
M 549.238906 121.92875 
Q 549.238906 137.08625 545.567031 149.4825 
Q 541.895156 161.849375 534.962656 170.661875 
Q 528.030156 179.474375 518.072031 184.2625 
Q 508.113906 189.050625 495.512031 189.050625 
Q 482.205156 189.050625 472.188281 184.056875 
Q 462.200781 179.03375 455.503281 170.074375 
Q 448.805781 161.115 445.457031 148.83625 
Q 442.108281 136.528125 442.108281 121.92875 
Q 442.108281 106.77125 445.574531 94.580625 
Q 449.070156 82.360625 455.914531 73.783125 
Q 462.758906 65.205625 472.717031 60.564375 
Q 482.675156 55.923125 495.629531 55.923125 
Q 508.554531 55.923125 518.542031 60.623125 
Q 528.558906 65.29375 535.344531 73.93 
Q 542.159531 82.536875 545.684531 94.7275 
Q 549.238906 106.88875 549.238906 121.92875 
z
M 526.561406 121.92875 
Q 526.561406 111.735625 524.563906 103.54 
Q 522.595781 95.315 518.688906 89.44 
Q 514.811406 83.565 509.024531 80.3925 
Q 503.237656 77.22 495.629531 77.22 
Q 487.815781 77.22 482.028906 80.3925 
Q 476.242031 83.565 472.276406 89.44 
Q 468.340156 95.315 466.401406 103.54 
Q 464.492031 111.735625 464.492031 121.92875 
Q 464.492031 132.03375 466.460156 140.435 
Q 468.457656 148.83625 472.335156 154.8875 
Q 476.242031 160.93875 482.058281 164.34625 
Q 487.903906 167.724375 495.512031 167.724375 
Q 503.707656 167.724375 509.523906 164.2875 
Q 515.340156 160.850625 519.158906 154.740625 
Q 522.977656 148.630625 524.769531 140.25875 
Q 526.561406 131.8575 526.561406 121.92875 
z
M 630.559922 187.2 
L 584.382422 87.589375 
Q 584.764297 91.643125 585.116797 95.6675 
Q 585.381172 99.163125 585.557422 103.216875 
Q 585.763047 107.24125 585.763047 110.913125 
L 585.763047 187.2 
L 566.023047 187.2 
L 566.023047 57.861875 
L 591.373672 57.861875 
L 638.256172 158.295 
Q 637.903672 154.4175 637.639297 150.216875 
Q 637.345547 146.633125 637.110547 142.13875 
Q 636.904922 137.615 636.904922 133.0325 
L 636.904922 57.861875 
L 656.615547 57.861875 
L 656.615547 187.2 
L 630.559922 187.2 
z
M 677.280859 187.2 
L 677.280859 57.861875 
L 699.576484 57.861875 
L 699.576484 187.2 
L 677.280859 187.2 
z
M 769.6175 167.724375 
Q 775.874375 167.724375 780.456875 165.58 
Q 785.039375 163.435625 788.388125 159.94 
Q 791.76625 156.444375 793.969375 152.038125 
Q 796.1725 147.631875 797.64125 143.1375 
L 816.91125 152.038125 
Q 814.62 159.029375 810.830625 165.726875 
Q 807.070625 172.424375 801.430625 177.565 
Q 795.790625 182.705625 787.976875 185.878125 
Q 780.1925 189.050625 769.6175 189.050625 
Q 755.87 189.050625 745.794375 184.056875 
Q 735.748125 179.03375 729.13875 170.074375 
Q 722.529375 161.115 719.356875 148.83625 
Q 716.21375 136.528125 716.21375 121.92875 
Q 716.21375 106.77125 719.356875 94.580625 
Q 722.529375 82.360625 728.991875 73.783125 
Q 735.48375 65.205625 745.383125 60.564375 
Q 755.311875 55.923125 768.706875 55.923125 
Q 779.07625 55.923125 786.89 58.59625 
Q 794.70375 61.24 800.34375 66.086875 
Q 805.98375 70.904375 809.685 77.455 
Q 813.415625 84.005625 815.530625 91.9075 
L 795.966875 98.42875 
Q 794.968125 94.286875 792.765 90.4975 
Q 790.561875 86.67875 787.213125 83.74125 
Q 783.864375 80.80375 779.37 79.011875 
Q 774.875625 77.22 769.176875 77.22 
Q 761.09875 77.22 755.311875 80.3925 
Q 749.525 83.565 745.794375 89.44 
Q 742.093125 95.315 740.30125 103.54 
Q 738.509375 111.735625 738.509375 121.92875 
Q 738.509375 132.03375 740.30125 140.435 
Q 742.093125 148.83625 745.853125 154.8875 
Q 749.613125 160.93875 755.488125 164.34625 
Q 761.363125 167.724375 769.6175 167.724375 
z
" style="fill: #f6f1e9; stroke: #2a0605; stroke-width: 5"/>
    <path d="M 163.875625 121.92875 
Q 163.875625 137.08625 160.20375 149.4825 
Q 156.531875 161.849375 149.599375 170.661875 
Q 142.666875 179.474375 132.70875 184.2625 
Q 122.750625 189.050625 110.14875 189.050625 
Q 96.841875 189.050625 86.825 184.056875 
Q 76.8375 179.03375 70.14 170.074375 
Q 63.4425 161.115 60.09375 148.83625 
Q 56.745 136.528125 56.745 121.92875 
Q 56.745 106.77125 60.21125 94.580625 
Q 63.706875 82.360625 70.55125 73.783125 
Q 77.395625 65.205625 87.35375 60.564375 
Q 97.311875 55.923125 110.26625 55.923125 
Q 123.19125 55.923125 133.17875 60.623125 
Q 143.195625 65.29375 149.98125 73.93 
Q 156.79625 82.536875 160.32125 94.7275 
Q 163.875625 106.88875 163.875625 121.92875 
z
M 141.198125 121.92875 
Q 141.198125 111.735625 139.200625 103.54 
Q 137.2325 95.315 133.325625 89.44 
Q 129.448125 83.565 123.66125 80.3925 
Q 117.874375 77.22 110.26625 77.22 
Q 102.4525 77.22 96.665625 80.3925 
Q 90.87875 83.565 86.913125 89.44 
Q 82.976875 95.315 81.038125 103.54 
Q 79.12875 111.735625 79.12875 121.92875 
Q 79.12875 132.03375 81.096875 140.435 
Q 83.094375 148.83625 86.971875 154.8875 
Q 90.87875 160.93875 96.695 164.34625 
Q 102.540625 167.724375 110.14875 167.724375 
Q 118.344375 167.724375 124.160625 164.2875 
Q 129.976875 160.850625 133.795625 154.740625 
Q 137.614375 148.630625 139.40625 140.25875 
Q 141.198125 131.8575 141.198125 121.92875 
z
M 274.659766 150.305 
Q 274.659766 160.11625 271.399141 167.136875 
Q 268.138516 174.1575 262.527891 178.6225 
Q 256.946641 183.058125 249.514766 185.14375 
Q 242.082891 187.2 233.711016 187.2 
L 180.659766 187.2 
L 180.659766 57.861875 
L 229.216641 57.861875 
Q 238.587266 57.861875 245.931016 59.83 
Q 253.274766 61.798125 258.327266 65.851875 
Q 263.379766 69.87625 265.935391 75.98625 
Q 268.520391 82.09625 268.520391 90.350625 
Q 268.520391 101.36625 263.497266 108.945 
Q 258.503516 116.52375 248.310391 119.1675 
Q 261.176641 121.018125 267.903516 129.066875 
Q 274.659766 137.08625 274.659766 150.305 
z
M 246.195391 94.0225 
Q 246.195391 85.298125 241.642266 81.62625 
Q 237.118516 77.954375 228.129766 77.954375 
L 202.867266 77.954375 
L 202.867266 110.0025 
L 228.306016 110.0025 
Q 237.676641 110.0025 241.936016 106.0075 
Q 246.195391 102.0125 246.195391 94.0225 
z
M 252.364141 148.19 
Q 252.364141 143.049375 250.689766 139.55375 
Q 249.044766 136.058125 246.136641 133.9725 
Q 243.257891 131.8575 239.409766 130.946875 
Q 235.561641 130.006875 230.979141 130.006875 
L 202.867266 130.006875 
L 202.867266 167.1075 
L 231.889766 167.1075 
Q 236.296016 167.1075 239.997266 166.22625 
Q 243.727891 165.345 246.459766 163.200625 
Q 249.221016 161.026875 250.777891 157.355 
Q 252.364141 153.683125 252.364141 148.19 
z
M 287.687578 149.65875 
L 287.687578 127.245625 
L 326.815078 127.245625 
L 326.815078 149.65875 
L 287.687578 149.65875 
z
M 429.712031 149.923125 
Q 429.712031 158.735625 427.097656 165.961875 
Q 424.483281 173.15875 418.931406 178.299375 
Q 413.379531 183.44 404.772656 186.26 
Q 396.195156 189.050625 384.268906 189.050625 
Q 373.723281 189.050625 365.674531 186.759375 
Q 357.655156 184.43875 351.868281 179.944375 
Q 346.081406 175.45 342.527031 168.81125 
Q 339.002031 162.143125 337.357031 153.506875 
L 358.830156 149.18875 
Q 359.770156 153.506875 361.503281 157.090625 
Q 363.236406 160.674375 366.262031 163.28875 
Q 369.317031 165.903125 373.840781 167.3425 
Q 378.393906 168.7525 384.915156 168.7525 
Q 396.195156 168.7525 402.158281 164.58125 
Q 408.121406 160.380625 408.121406 151.48 
Q 408.121406 146.163125 405.742031 142.785 
Q 403.362656 139.3775 399.367656 137.174375 
Q 395.372656 134.97125 390.173281 133.5025 
Q 385.003281 132.03375 379.304531 130.653125 
Q 379.304531 130.653125 370.227656 127.98 
Q 365.733281 126.599375 361.650156 124.69 
Q 357.567031 122.75125 354.012656 120.1075 
Q 350.487656 117.434375 347.873281 113.5275 
Q 345.258906 109.620625 343.790156 104.391875 
Q 342.321406 99.163125 342.321406 92.08375 
Q 342.321406 82.44875 345.464531 75.575 
Q 348.637031 68.70125 354.277031 64.35375 
Q 359.946406 59.976875 367.642656 57.95 
Q 375.368281 55.923125 384.533281 55.923125 
Q 394.902656 55.923125 402.334531 57.920625 
Q 409.795781 59.88875 414.789531 63.9425 
Q 419.783281 67.966875 422.662031 74.076875 
Q 425.570156 80.1575 426.950781 88.32375 
L 405.477656 91.9075 
Q 403.832656 83.565 398.721406 79.335 
Q 393.639531 75.105 384.180781 75.105 
Q 378.305781 75.105 374.398906 76.368125 
Q 370.492031 77.601875 368.200781 79.716875 
Q 365.909531 81.8025 364.940156 84.6225 
Q 363.970781 87.413125 363.970781 90.526875 
Q 363.970781 95.315 365.850781 98.399375 
Q 367.730781 101.454375 371.138281 103.54 
Q 374.545781 105.59625 379.216406 107.035625 
Q 383.887031 108.445625 389.585781 109.914375 
Q 394.550156 111.1775 399.397031 112.616875 
Q 404.273281 114.026875 408.708906 115.965625 
Q 413.173906 117.904375 417.022031 120.665625 
Q 420.899531 123.3975 423.690156 127.3925 
Q 426.480781 131.3875 428.096406 136.91 
Q 429.712031 142.403125 429.712031 149.923125 
z
M 549.238906 121.92875 
Q 549.238906 137.08625 545.567031 149.4825 
Q 541.895156 161.849375 534.962656 170.661875 
Q 528.030156 179.474375 518.072031 184.2625 
Q 508.113906 189.050625 495.512031 189.050625 
Q 482.205156 189.050625 472.188281 184.056875 
Q 462.200781 179.03375 455.503281 170.074375 
Q 448.805781 161.115 445.457031 148.83625 
Q 442.108281 136.528125 442.108281 121.92875 
Q 442.108281 106.77125 445.574531 94.580625 
Q 449.070156 82.360625 455.914531 73.783125 
Q 462.758906 65.205625 472.717031 60.564375 
Q 482.675156 55.923125 495.629531 55.923125 
Q 508.554531 55.923125 518.542031 60.623125 
Q 528.558906 65.29375 535.344531 73.93 
Q 542.159531 82.536875 545.684531 94.7275 
Q 549.238906 106.88875 549.238906 121.92875 
z
M 526.561406 121.92875 
Q 526.561406 111.735625 524.563906 103.54 
Q 522.595781 95.315 518.688906 89.44 
Q 514.811406 83.565 509.024531 80.3925 
Q 503.237656 77.22 495.629531 77.22 
Q 487.815781 77.22 482.028906 80.3925 
Q 476.242031 83.565 472.276406 89.44 
Q 468.340156 95.315 466.401406 103.54 
Q 464.492031 111.735625 464.492031 121.92875 
Q 464.492031 132.03375 466.460156 140.435 
Q 468.457656 148.83625 472.335156 154.8875 
Q 476.242031 160.93875 482.058281 164.34625 
Q 487.903906 167.724375 495.512031 167.724375 
Q 503.707656 167.724375 509.523906 164.2875 
Q 515.340156 160.850625 519.158906 154.740625 
Q 522.977656 148.630625 524.769531 140.25875 
Q 526.561406 131.8575 526.561406 121.92875 
z
M 630.559922 187.2 
L 584.382422 87.589375 
Q 584.764297 91.643125 585.116797 95.6675 
Q 585.381172 99.163125 585.557422 103.216875 
Q 585.763047 107.24125 585.763047 110.913125 
L 585.763047 187.2 
L 566.023047 187.2 
L 566.023047 57.861875 
L 591.373672 57.861875 
L 638.256172 158.295 
Q 637.903672 154.4175 637.639297 150.216875 
Q 637.345547 146.633125 637.110547 142.13875 
Q 636.904922 137.615 636.904922 133.0325 
L 636.904922 57.861875 
L 656.615547 57.861875 
L 656.615547 187.2 
L 630.559922 187.2 
z
M 677.280859 187.2 
L 677.280859 57.861875 
L 699.576484 57.861875 
L 699.576484 187.2 
L 677.280859 187.2 
z
M 769.6175 167.724375 
Q 775.874375 167.724375 780.456875 165.58 
Q 785.039375 163.435625 788.388125 159.94 
Q 791.76625 156.444375 793.969375 152.038125 
Q 796.1725 147.631875 797.64125 143.1375 
L 816.91125 152.038125 
Q 814.62 159.029375 810.830625 165.726875 
Q 807.070625 172.424375 801.430625 177.565 
Q 795.790625 182.705625 787.976875 185.878125 
Q 780.1925 189.050625 769.6175 189.050625 
Q 755.87 189.050625 745.794375 184.056875 
Q 735.748125 179.03375 729.13875 170.074375 
Q 722.529375 161.115 719.356875 148.83625 
Q 716.21375 136.528125 716.21375 121.92875 
Q 716.21375 106.77125 719.356875 94.580625 
Q 722.529375 82.360625 728.991875 73.783125 
Q 735.48375 65.205625 745.383125 60.564375 
Q 755.311875 55.923125 768.706875 55.923125 
Q 779.07625 55.923125 786.89 58.59625 
Q 794.70375 61.24 800.34375 66.086875 
Q 805.98375 70.904375 809.685 77.455 
Q 813.415625 84.005625 815.530625 91.9075 
L 795.966875 98.42875 
Q 794.968125 94.286875 792.765 90.4975 
Q 790.561875 86.67875 787.213125 83.74125 
Q 783.864375 80.80375 779.37 79.011875 
Q 774.875625 77.22 769.176875 77.22 
Q 761.09875 77.22 755.311875 80.3925 
Q 749.525 83.565 745.794375 89.44 
Q 742.093125 95.315 740.30125 103.54 
Q 738.509375 111.735625 738.509375 121.92875 
Q 738.509375 132.03375 740.30125 140.435 
Q 742.093125 148.83625 745.853125 154.8875 
Q 749.613125 160.93875 755.488125 164.34625 
Q 761.363125 167.724375 769.6175 167.724375 
z
" style="fill: #f6f1e9"/>
   </g>
   <g id="text_3">
    <path d="M 114.590625 306 
L 114.590625 287.920313 
Q 119.696875 276.66875 129.107813 266.010938 
Q 138.51875 255.353125 152.798438 243.745313 
Q 166.54375 232.6125 172.065625 225.398438 
Q 177.5875 218.154688 177.5875 211.178125 
Q 177.5875 194.107813 160.428125 194.107813 
Q 152.05625 194.107813 147.6625 198.620313 
Q 143.26875 203.103125 141.9625 212.098437 
L 115.689063 210.614062 
Q 117.915625 192.445312 129.285938 182.885938 
Q 140.65625 173.326562 160.220313 173.326562 
Q 181.3875 173.326562 192.698438 182.975 
Q 204.009375 192.623438 204.009375 210.079688 
Q 204.009375 219.253125 200.3875 226.675 
Q 196.795313 234.096875 191.125 240.360938 
Q 185.454688 246.625 178.5375 252.117188 
Q 171.65 257.579687 165.148438 262.775 
Q 158.646875 267.970312 153.303125 273.254687 
Q 147.989063 278.539062 145.376563 284.565625 
L 206.057813 284.565625 
L 206.057813 306 
L 114.590625 306 
z
M 311.548633 240.598437 
Q 311.548633 273.7 300.17832 290.8 
Q 288.808008 307.870313 266.09707 307.870313 
Q 221.179883 307.870313 221.179883 240.598437 
Q 221.179883 217.115625 226.07832 202.271875 
Q 231.006445 187.428125 240.833008 180.392188 
Q 250.689258 173.326562 266.839258 173.326562 
Q 290.025195 173.326562 300.77207 190.129687 
Q 311.548633 206.903125 311.548633 240.598437 
z
M 285.393945 240.598437 
Q 285.393945 222.489062 283.612695 212.484375 
Q 281.861133 202.45 277.942383 198.115625 
Q 274.05332 193.751563 266.631445 193.751563 
Q 258.764258 193.751563 254.726758 198.175 
Q 250.689258 202.56875 248.967383 212.54375 
Q 247.245508 222.489062 247.245508 240.598437 
Q 247.245508 258.5 249.056445 268.564062 
Q 250.867383 278.628125 254.81582 282.992188 
Q 258.764258 287.35625 266.275195 287.35625 
Q 273.69707 287.35625 277.73457 282.754687 
Q 281.77207 278.153125 283.583008 268.059375 
Q 285.393945 257.935938 285.393945 240.598437 
z
M 325.928516 306 
L 325.928516 287.920313 
Q 331.034766 276.66875 340.445703 266.010938 
Q 349.856641 255.353125 364.136328 243.745313 
Q 377.881641 232.6125 383.403516 225.398438 
Q 388.925391 218.154688 388.925391 211.178125 
Q 388.925391 194.107813 371.766016 194.107813 
Q 363.394141 194.107813 359.000391 198.620313 
Q 354.606641 203.103125 353.300391 212.098437 
L 327.026953 210.614062 
Q 329.253516 192.445312 340.623828 182.885938 
Q 351.994141 173.326562 371.558203 173.326562 
Q 392.725391 173.326562 404.036328 182.975 
Q 415.347266 192.623438 415.347266 210.079688 
Q 415.347266 219.253125 411.725391 226.675 
Q 408.133203 234.096875 402.462891 240.360938 
Q 396.792578 246.625 389.875391 252.117188 
Q 382.987891 257.579687 376.486328 262.775 
Q 369.984766 267.970312 364.641016 273.254687 
Q 359.326953 278.539062 356.714453 284.565625 
L 417.395703 284.565625 
L 417.395703 306 
L 325.928516 306 
z
M 523.806836 263.220312 
Q 523.806836 284.090625 512.109961 295.995313 
Q 500.442773 307.870313 479.839648 307.870313 
Q 456.742773 307.870313 444.333398 291.690625 
Q 431.953711 275.48125 431.953711 243.65625 
Q 431.953711 208.684375 444.511523 191.020312 
Q 457.099023 173.326562 480.492773 173.326562 
Q 497.088086 173.326562 506.677148 180.659375 
Q 516.295898 187.992188 520.274023 203.4 
L 495.692773 206.814063 
Q 492.189648 193.929688 479.928711 193.929688 
Q 469.449023 193.929688 463.452148 204.409375 
Q 457.484961 214.889063 457.484961 236.234375 
Q 461.641211 229.2875 469.063086 225.576563 
Q 476.484961 221.865625 485.866211 221.865625 
Q 503.411523 221.865625 513.594336 232.998438 
Q 523.806836 244.13125 523.806836 263.220312 
z
M 497.652148 263.9625 
Q 497.652148 252.829688 492.486523 246.951562 
Q 487.350586 241.04375 478.355273 241.04375 
Q 469.716211 241.04375 464.520898 246.565625 
Q 459.325586 252.0875 459.325586 261.201563 
Q 459.325586 272.601562 464.758398 280.082812 
Q 470.191211 287.534375 479.008398 287.534375 
Q 487.825586 287.534375 492.724023 281.270312 
Q 497.652148 275.00625 497.652148 263.9625 
z
" style="fill: #e21d17; stroke: #000000; stroke-width: 20"/>
    <path d="M 114.590625 306 
L 114.590625 287.920313 
Q 119.696875 276.66875 129.107813 266.010938 
Q 138.51875 255.353125 152.798438 243.745313 
Q 166.54375 232.6125 172.065625 225.398438 
Q 177.5875 218.154688 177.5875 211.178125 
Q 177.5875 194.107813 160.428125 194.107813 
Q 152.05625 194.107813 147.6625 198.620313 
Q 143.26875 203.103125 141.9625 212.098437 
L 115.689063 210.614062 
Q 117.915625 192.445312 129.285938 182.885938 
Q 140.65625 173.326562 160.220313 173.326562 
Q 181.3875 173.326562 192.698438 182.975 
Q 204.009375 192.623438 204.009375 210.079688 
Q 204.009375 219.253125 200.3875 226.675 
Q 196.795313 234.096875 191.125 240.360938 
Q 185.454688 246.625 178.5375 252.117188 
Q 171.65 257.579687 165.148438 262.775 
Q 158.646875 267.970312 153.303125 273.254687 
Q 147.989063 278.539062 145.376563 284.565625 
L 206.057813 284.565625 
L 206.057813 306 
L 114.590625 306 
z
M 311.548633 240.598437 
Q 311.548633 273.7 300.17832 290.8 
Q 288.808008 307.870313 266.09707 307.870313 
Q 221.179883 307.870313 221.179883 240.598437 
Q 221.179883 217.115625 226.07832 202.271875 
Q 231.006445 187.428125 240.833008 180.392188 
Q 250.689258 173.326562 266.839258 173.326562 
Q 290.025195 173.326562 300.77207 190.129687 
Q 311.548633 206.903125 311.548633 240.598437 
z
M 285.393945 240.598437 
Q 285.393945 222.489062 283.612695 212.484375 
Q 281.861133 202.45 277.942383 198.115625 
Q 274.05332 193.751563 266.631445 193.751563 
Q 258.764258 193.751563 254.726758 198.175 
Q 250.689258 202.56875 248.967383 212.54375 
Q 247.245508 222.489062 247.245508 240.598437 
Q 247.245508 258.5 249.056445 268.564062 
Q 250.867383 278.628125 254.81582 282.992188 
Q 258.764258 287.35625 266.275195 287.35625 
Q 273.69707 287.35625 277.73457 282.754687 
Q 281.77207 278.153125 283.583008 268.059375 
Q 285.393945 257.935938 285.393945 240.598437 
z
M 325.928516 306 
L 325.928516 287.920313 
Q 331.034766 276.66875 340.445703 266.010938 
Q 349.856641 255.353125 364.136328 243.745313 
Q 377.881641 232.6125 383.403516 225.398438 
Q 388.925391 218.154688 388.925391 211.178125 
Q 388.925391 194.107813 371.766016 194.107813 
Q 363.394141 194.107813 359.000391 198.620313 
Q 354.606641 203.103125 353.300391 212.098437 
L 327.026953 210.614062 
Q 329.253516 192.445312 340.623828 182.885938 
Q 351.994141 173.326562 371.558203 173.326562 
Q 392.725391 173.326562 404.036328 182.975 
Q 415.347266 192.623438 415.347266 210.079688 
Q 415.347266 219.253125 411.725391 226.675 
Q 408.133203 234.096875 402.462891 240.360938 
Q 396.792578 246.625 389.875391 252.117188 
Q 382.987891 257.579687 376.486328 262.775 
Q 369.984766 267.970312 364.641016 273.254687 
Q 359.326953 278.539062 356.714453 284.565625 
L 417.395703 284.565625 
L 417.395703 306 
L 325.928516 306 
z
M 523.806836 263.220312 
Q 523.806836 284.090625 512.109961 295.995313 
Q 500.442773 307.870313 479.839648 307.870313 
Q 456.742773 307.870313 444.333398 291.690625 
Q 431.953711 275.48125 431.953711 243.65625 
Q 431.953711 208.684375 444.511523 191.020312 
Q 457.099023 173.326562 480.492773 173.326562 
Q 497.088086 173.326562 506.677148 180.659375 
Q 516.295898 187.992188 520.274023 203.4 
L 495.692773 206.814063 
Q 492.189648 193.929688 479.928711 193.929688 
Q 469.449023 193.929688 463.452148 204.409375 
Q 457.484961 214.889063 457.484961 236.234375 
Q 461.641211 229.2875 469.063086 225.576563 
Q 476.484961 221.865625 485.866211 221.865625 
Q 503.411523 221.865625 513.594336 232.998438 
Q 523.806836 244.13125 523.806836 263.220312 
z
M 497.652148 263.9625 
Q 497.652148 252.829688 492.486523 246.951562 
Q 487.350586 241.04375 478.355273 241.04375 
Q 469.716211 241.04375 464.520898 246.565625 
Q 459.325586 252.0875 459.325586 261.201563 
Q 459.325586 272.601562 464.758398 280.082812 
Q 470.191211 287.534375 479.008398 287.534375 
Q 487.825586 287.534375 492.724023 281.270312 
Q 497.652148 275.00625 497.652148 263.9625 
z
" style="fill: #e21d17"/>
    <path d="M 114.590625 306 
L 114.590625 287.920313 
Q 119.696875 276.66875 129.107813 266.010938 
Q 138.51875 255.353125 152.798438 243.745313 
Q 166.54375 232.6125 172.065625 225.398438 
Q 177.5875 218.154688 177.5875 211.178125 
Q 177.5875 194.107813 160.428125 194.107813 
Q 152.05625 194.107813 147.6625 198.620313 
Q 143.26875 203.103125 141.9625 212.098437 
L 115.689063 210.614062 
Q 117.915625 192.445312 129.285938 182.885938 
Q 140.65625 173.326562 160.220313 173.326562 
Q 181.3875 173.326562 192.698438 182.975 
Q 204.009375 192.623438 204.009375 210.079688 
Q 204.009375 219.253125 200.3875 226.675 
Q 196.795313 234.096875 191.125 240.360938 
Q 185.454688 246.625 178.5375 252.117188 
Q 171.65 257.579687 165.148438 262.775 
Q 158.646875 267.970312 153.303125 273.254687 
Q 147.989063 278.539062 145.376563 284.565625 
L 206.057813 284.565625 
L 206.057813 306 
L 114.590625 306 
z
M 311.548633 240.598437 
Q 311.548633 273.7 300.17832 290.8 
Q 288.808008 307.870313 266.09707 307.870313 
Q 221.179883 307.870313 221.179883 240.598437 
Q 221.179883 217.115625 226.07832 202.271875 
Q 231.006445 187.428125 240.833008 180.392188 
Q 250.689258 173.326562 266.839258 173.326562 
Q 290.025195 173.326562 300.77207 190.129687 
Q 311.548633 206.903125 311.548633 240.598437 
z
M 285.393945 240.598437 
Q 285.393945 222.489062 283.612695 212.484375 
Q 281.861133 202.45 277.942383 198.115625 
Q 274.05332 193.751563 266.631445 193.751563 
Q 258.764258 193.751563 254.726758 198.175 
Q 250.689258 202.56875 248.967383 212.54375 
Q 247.245508 222.489062 247.245508 240.598437 
Q 247.245508 258.5 249.056445 268.564062 
Q 250.867383 278.628125 254.81582 282.992188 
Q 258.764258 287.35625 266.275195 287.35625 
Q 273.69707 287.35625 277.73457 282.754687 
Q 281.77207 278.153125 283.583008 268.059375 
Q 285.393945 257.935938 285.393945 240.598437 
z
M 325.928516 306 
L 325.928516 287.920313 
Q 331.034766 276.66875 340.445703 266.010938 
Q 349.856641 255.353125 364.136328 243.745313 
Q 377.881641 232.6125 383.403516 225.398438 
Q 388.925391 218.154688 388.925391 211.178125 
Q 388.925391 194.107813 371.766016 194.107813 
Q 363.394141 194.107813 359.000391 198.620313 
Q 354.606641 203.103125 353.300391 212.098437 
L 327.026953 210.614062 
Q 329.253516 192.445312 340.623828 182.885938 
Q 351.994141 173.326562 371.558203 173.326562 
Q 392.725391 173.326562 404.036328 182.975 
Q 415.347266 192.623438 415.347266 210.079688 
Q 415.347266 219.253125 411.725391 226.675 
Q 408.133203 234.096875 402.462891 240.360938 
Q 396.792578 246.625 389.875391 252.117188 
Q 382.987891 257.579687 376.486328 262.775 
Q 369.984766 267.970312 364.641016 273.254687 
Q 359.326953 278.539062 356.714453 284.565625 
L 417.395703 284.565625 
L 417.395703 306 
L 325.928516 306 
z
M 523.806836 263.220312 
Q 523.806836 284.090625 512.109961 295.995313 
Q 500.442773 307.870313 479.839648 307.870313 
Q 456.742773 307.870313 444.333398 291.690625 
Q 431.953711 275.48125 431.953711 243.65625 
Q 431.953711 208.684375 444.511523 191.020312 
Q 457.099023 173.326562 480.492773 173.326562 
Q 497.088086 173.326562 506.677148 180.659375 
Q 516.295898 187.992188 520.274023 203.4 
L 495.692773 206.814063 
Q 492.189648 193.929688 479.928711 193.929688 
Q 469.449023 193.929688 463.452148 204.409375 
Q 457.484961 214.889063 457.484961 236.234375 
Q 461.641211 229.2875 469.063086 225.576563 
Q 476.484961 221.865625 485.866211 221.865625 
Q 503.411523 221.865625 513.594336 232.998438 
Q 523.806836 244.13125 523.806836 263.220312 
z
M 497.652148 263.9625 
Q 497.652148 252.829688 492.486523 246.951562 
Q 487.350586 241.04375 478.355273 241.04375 
Q 469.716211 241.04375 464.520898 246.565625 
Q 459.325586 252.0875 459.325586 261.201563 
Q 459.325586 272.601562 464.758398 280.082812 
Q 470.191211 287.534375 479.008398 287.534375 
Q 487.825586 287.534375 492.724023 281.270312 
Q 497.652148 275.00625 497.652148 263.9625 
z
" style="fill: #e21d17; stroke: #580000; stroke-width: 4"/>
    <path d="M 114.590625 306 
L 114.590625 287.920313 
Q 119.696875 276.66875 129.107813 266.010938 
Q 138.51875 255.353125 152.798438 243.745313 
Q 166.54375 232.6125 172.065625 225.398438 
Q 177.5875 218.154688 177.5875 211.178125 
Q 177.5875 194.107813 160.428125 194.107813 
Q 152.05625 194.107813 147.6625 198.620313 
Q 143.26875 203.103125 141.9625 212.098437 
L 115.689063 210.614062 
Q 117.915625 192.445312 129.285938 182.885938 
Q 140.65625 173.326562 160.220313 173.326562 
Q 181.3875 173.326562 192.698438 182.975 
Q 204.009375 192.623438 204.009375 210.079688 
Q 204.009375 219.253125 200.3875 226.675 
Q 196.795313 234.096875 191.125 240.360938 
Q 185.454688 246.625 178.5375 252.117188 
Q 171.65 257.579687 165.148438 262.775 
Q 158.646875 267.970312 153.303125 273.254687 
Q 147.989063 278.539062 145.376563 284.565625 
L 206.057813 284.565625 
L 206.057813 306 
L 114.590625 306 
z
M 311.548633 240.598437 
Q 311.548633 273.7 300.17832 290.8 
Q 288.808008 307.870313 266.09707 307.870313 
Q 221.179883 307.870313 221.179883 240.598437 
Q 221.179883 217.115625 226.07832 202.271875 
Q 231.006445 187.428125 240.833008 180.392188 
Q 250.689258 173.326562 266.839258 173.326562 
Q 290.025195 173.326562 300.77207 190.129687 
Q 311.548633 206.903125 311.548633 240.598437 
z
M 285.393945 240.598437 
Q 285.393945 222.489062 283.612695 212.484375 
Q 281.861133 202.45 277.942383 198.115625 
Q 274.05332 193.751563 266.631445 193.751563 
Q 258.764258 193.751563 254.726758 198.175 
Q 250.689258 202.56875 248.967383 212.54375 
Q 247.245508 222.489062 247.245508 240.598437 
Q 247.245508 258.5 249.056445 268.564062 
Q 250.867383 278.628125 254.81582 282.992188 
Q 258.764258 287.35625 266.275195 287.35625 
Q 273.69707 287.35625 277.73457 282.754687 
Q 281.77207 278.153125 283.583008 268.059375 
Q 285.393945 257.935938 285.393945 240.598437 
z
M 325.928516 306 
L 325.928516 287.920313 
Q 331.034766 276.66875 340.445703 266.010938 
Q 349.856641 255.353125 364.136328 243.745313 
Q 377.881641 232.6125 383.403516 225.398438 
Q 388.925391 218.154688 388.925391 211.178125 
Q 388.925391 194.107813 371.766016 194.107813 
Q 363.394141 194.107813 359.000391 198.620313 
Q 354.606641 203.103125 353.300391 212.098437 
L 327.026953 210.614062 
Q 329.253516 192.445312 340.623828 182.885938 
Q 351.994141 173.326562 371.558203 173.326562 
Q 392.725391 173.326562 404.036328 182.975 
Q 415.347266 192.623438 415.347266 210.079688 
Q 415.347266 219.253125 411.725391 226.675 
Q 408.133203 234.096875 402.462891 240.360938 
Q 396.792578 246.625 389.875391 252.117188 
Q 382.987891 257.579687 376.486328 262.775 
Q 369.984766 267.970312 364.641016 273.254687 
Q 359.326953 278.539062 356.714453 284.565625 
L 417.395703 284.565625 
L 417.395703 306 
L 325.928516 306 
z
M 523.806836 263.220312 
Q 523.806836 284.090625 512.109961 295.995313 
Q 500.442773 307.870313 479.839648 307.870313 
Q 456.742773 307.870313 444.333398 291.690625 
Q 431.953711 275.48125 431.953711 243.65625 
Q 431.953711 208.684375 444.511523 191.020312 
Q 457.099023 173.326562 480.492773 173.326562 
Q 497.088086 173.326562 506.677148 180.659375 
Q 516.295898 187.992188 520.274023 203.4 
L 495.692773 206.814063 
Q 492.189648 193.929688 479.928711 193.929688 
Q 469.449023 193.929688 463.452148 204.409375 
Q 457.484961 214.889063 457.484961 236.234375 
Q 461.641211 229.2875 469.063086 225.576563 
Q 476.484961 221.865625 485.866211 221.865625 
Q 503.411523 221.865625 513.594336 232.998438 
Q 523.806836 244.13125 523.806836 263.220312 
z
M 497.652148 263.9625 
Q 497.652148 252.829688 492.486523 246.951562 
Q 487.350586 241.04375 478.355273 241.04375 
Q 469.716211 241.04375 464.520898 246.565625 
Q 459.325586 252.0875 459.325586 261.201563 
Q 459.325586 272.601562 464.758398 280.082812 
Q 470.191211 287.534375 479.008398 287.534375 
Q 487.825586 287.534375 492.724023 281.270312 
Q 497.652148 275.00625 497.652148 263.9625 
z
" style="fill: #e21d17"/>
   </g>
  </g>
 </g>
 <defs>
  <clipPath id="p7b92da2d91">
   <rect x="0" y="0" width="864" height="374.4"/>
  </clipPath>
 </defs>
</svg>
