<svg xmlns="http://www.w3.org/2000/svg" viewBox="0 0 1000 540" role="img" aria-labelledby="title desc">
<title id="title">LMC OB-SONIC 2026</title>
<desc id="desc">LMC OB-SONIC 2026 event logo in red, white and black.</desc>
<defs>
  <filter id="roughShadow" x="-10%" y="-10%" width="120%" height="120%">
    <feDropShadow dx="8" dy="8" stdDeviation="0" flood-color="#070303" flood-opacity="0.85"/>
    <feDropShadow dx="0" dy="0" stdDeviation="8" flood-color="#e21d17" flood-opacity="0.35"/>
  </filter>
  <clipPath id="textClip">
    <path d="M72.00,145.54 L72.00,59.21 L93.88,59.21 L93.88,127.52 L118.06,127.52 L118.06,145.54 L72.00,145.54 Z M161.46,145.54 L146.95,85.94 L146.46,85.94 Q146.95,91.14 147.26,96.88 Q147.56,102.62 147.56,107.70 L147.56,145.54 L127.50,145.54 L127.50,59.21 L158.80,59.21 L170.42,110.23 L170.78,110.23 L182.37,59.21 L213.45,59.21 L213.45,145.54 L192.90,145.54 L192.90,107.34 Q192.90,102.13 193.07,96.52 Q193.26,90.89 193.61,85.94 L193.26,85.94 L178.88,145.54 L161.46,145.54 Z M260.84,76.14 Q254.55,76.14 251.23,83.22 Q247.90,90.29 247.90,102.73 Q247.90,128.62 262.05,128.62 Q266.53,128.62 270.63,126.99 Q274.75,125.35 278.86,123.18 L278.86,141.92 Q274.27,144.33 269.19,145.54 Q264.11,146.75 258.67,146.75 Q241.86,146.75 233.58,135.15 Q225.31,123.53 225.31,102.62 Q225.31,89.44 229.35,79.35 Q233.39,69.26 241.01,63.63 Q248.64,58.00 259.27,58.00 Q264.96,58.00 270.76,59.51 Q276.56,61.02 282.00,64.05 L275.95,81.46 Q272.33,79.04 268.70,77.59 Q265.07,76.14 260.84,76.14 Z"/><path d="M193.60,221.75 Q193.60,256.14 179.83,274.92 Q166.05,293.67 137.89,293.67 Q110.34,293.67 96.17,274.83 Q82.00,255.95 82.00,221.53 Q82.00,187.32 95.96,168.66 Q109.95,150.00 137.89,150.00 Q166.24,150.00 179.92,168.66 Q193.60,187.32 193.60,221.75 Z M118.93,221.75 Q118.93,242.45 123.51,253.11 Q128.12,263.77 137.89,263.77 Q147.85,263.77 152.25,253.33 Q156.65,242.85 156.65,221.75 Q156.65,200.64 152.25,189.98 Q147.85,179.32 137.89,179.32 Q128.12,179.32 123.51,190.16 Q118.93,201.01 118.93,221.75 Z M255.36,152.14 Q280.59,152.14 291.92,160.75 Q303.25,169.36 303.25,186.96 Q303.25,199.27 297.57,207.30 Q291.92,215.30 284.68,217.62 L284.68,218.60 Q294.09,221.53 299.74,229.26 Q305.42,236.99 305.42,250.85 Q305.42,269.82 292.99,280.79 Q280.59,291.72 259.09,291.72 L212.97,291.72 L212.97,152.14 L255.36,152.14 Z M255.00,206.29 Q261.23,206.29 264.25,202.60 Q267.30,198.87 267.30,192.21 Q267.30,179.50 254.60,179.50 L248.34,179.50 L248.34,206.29 L255.00,206.29 Z M248.34,232.68 L248.34,263.77 L256.34,263.77 Q269.26,263.77 269.26,247.92 Q269.26,241.08 266.11,236.89 Q263.00,232.68 256.16,232.68 L248.34,232.68 Z M318.13,254.18 L318.13,224.46 L369.72,224.46 L369.72,254.18 L318.13,254.18 Z M462.78,249.30 Q462.78,261.82 457.50,271.90 Q452.21,281.95 441.95,287.81 Q431.69,293.67 416.84,293.67 Q405.88,293.67 397.66,291.72 Q389.48,289.76 380.28,284.88 L380.28,251.25 Q389.26,256.93 398.64,259.95 Q408.05,262.98 415.29,262.98 Q421.15,262.98 424.08,260.05 Q427.01,257.11 427.01,252.62 Q427.01,249.51 425.73,246.88 Q424.45,244.23 420.63,241.11 Q416.84,237.96 408.81,233.47 Q399.83,228.37 393.57,222.91 Q387.31,217.44 384.19,209.93 Q381.08,202.38 381.08,191.05 Q381.08,171.90 392.90,161.06 Q404.72,150.18 425.82,150.18 Q435.99,150.18 445.28,152.84 Q454.56,155.47 462.96,160.17 L453.19,189.28 Q438.13,180.30 426.40,180.30 Q421.15,180.30 418.89,182.83 Q416.63,185.37 416.63,189.28 Q416.63,192.82 418.10,195.45 Q419.56,198.07 423.87,201.13 Q428.17,204.15 436.57,209.04 Q449.28,216.46 456.03,225.56 Q462.78,234.63 462.78,249.30 Z M586.90,221.75 Q586.90,256.14 573.13,274.92 Q559.35,293.67 531.19,293.67 Q503.64,293.67 489.47,274.83 Q475.30,255.95 475.30,221.53 Q475.30,187.32 489.25,168.66 Q503.24,150.00 531.19,150.00 Q559.53,150.00 573.22,168.66 Q586.90,187.32 586.90,221.75 Z M512.22,221.75 Q512.22,242.45 516.80,253.11 Q521.42,263.77 531.19,263.77 Q541.15,263.77 545.54,253.33 Q549.94,242.85 549.94,221.75 Q549.94,200.64 545.54,189.98 Q541.15,179.32 531.19,179.32 Q521.42,179.32 516.80,190.16 Q512.22,201.01 512.22,221.75 Z M717.69,291.72 L674.68,291.72 L637.72,201.40 L636.93,201.40 Q637.54,209.62 638.03,219.49 Q638.52,229.35 638.52,236.80 L638.52,291.72 L606.26,291.72 L606.26,152.14 L649.06,152.14 L685.80,240.32 L686.59,240.32 Q686.20,232.89 685.71,223.43 Q685.22,213.93 685.22,206.50 L685.22,152.14 L717.69,152.14 L717.69,291.72 Z M797.62,291.72 L734.49,291.72 L734.49,272.75 L748.36,266.12 L748.36,177.76 L734.49,171.11 L734.49,152.14 L797.62,152.14 L797.62,171.11 L783.76,177.76 L783.76,266.12 L797.62,272.75 L797.62,291.72 Z M867.79,179.50 Q857.62,179.50 852.25,190.96 Q846.87,202.38 846.87,222.51 Q846.87,264.35 869.75,264.35 Q876.99,264.35 883.61,261.73 Q890.27,259.07 896.93,255.56 L896.93,285.86 Q889.51,289.76 881.29,291.72 Q873.08,293.67 864.28,293.67 Q837.10,293.67 823.72,274.92 Q810.34,256.14 810.34,222.33 Q810.34,201.01 816.88,184.70 Q823.41,168.39 835.72,159.29 Q848.06,150.18 865.26,150.18 Q874.45,150.18 883.83,152.63 Q893.20,155.07 902.00,159.96 L892.23,188.12 Q886.36,184.21 880.50,181.86 Q874.63,179.50 867.79,179.50 Z"/><path d="M311.95,603.29 L162.79,603.29 L162.79,561.82 L210.79,500.09 Q226.22,479.84 234.26,467.14 Q242.30,454.44 245.03,445.71 Q247.82,436.98 247.82,428.40 Q247.82,418.12 242.83,412.49 Q237.85,406.81 229.65,406.81 Q221.08,406.81 211.97,412.65 Q202.86,418.44 191.24,432.85 L160.00,394.11 Q176.13,374.56 193.76,364.81 Q211.44,355.00 237.15,355.00 Q258.10,355.00 274.18,363.57 Q290.31,372.15 299.41,387.42 Q308.52,402.69 308.52,422.94 Q308.52,439.39 303.70,453.64 Q298.88,467.84 288.43,483.97 Q277.98,500.09 260.52,522.01 L238.55,550.14 L238.23,551.85 L311.95,551.85 L311.95,603.29 Z M490.95,481.23 Q490.95,517.56 484.41,546.01 Q477.88,574.46 461.43,590.59 Q444.98,606.72 415.14,606.72 Q376.72,606.72 358.18,574.68 Q339.70,542.58 339.70,481.23 Q339.70,417.80 357.70,386.40 Q375.70,355.00 415.14,355.00 Q453.55,355.00 472.25,387.25 Q490.95,419.51 490.95,481.23 Z M401.10,481.23 Q401.10,519.60 403.45,537.60 Q405.87,555.60 415.14,555.60 Q424.73,555.60 427.30,537.60 Q429.87,519.60 429.87,481.23 Q429.87,443.83 427.30,424.97 Q424.73,406.11 415.14,406.11 Q406.24,406.11 403.67,424.97 Q401.10,443.83 401.10,481.23 Z M659.66,603.29 L510.50,603.29 L510.50,561.82 L558.50,500.09 Q573.93,479.84 581.97,467.14 Q590.01,454.44 592.74,445.71 Q595.53,436.98 595.53,428.40 Q595.53,418.12 590.54,412.49 Q585.56,406.81 577.36,406.81 Q568.79,406.81 559.68,412.65 Q550.57,418.44 538.95,432.85 L507.71,394.11 Q523.84,374.56 541.47,364.81 Q559.15,355.00 584.86,355.00 Q605.81,355.00 621.89,363.57 Q638.02,372.15 647.12,387.42 Q656.23,402.69 656.23,422.94 Q656.23,439.39 651.41,453.64 Q646.59,467.84 636.14,483.97 Q625.69,500.09 608.23,522.01 L586.26,550.14 L585.94,551.85 L659.66,551.85 L659.66,603.29 Z M686.39,499.72 Q686.39,472.29 690.83,446.57 Q695.28,420.85 706.75,400.11 Q718.27,379.38 739.32,367.22 Q760.43,355.00 793.71,355.00 Q801.58,355.00 810.69,355.70 Q819.80,356.39 827.68,357.79 L827.68,407.13 Q821.14,405.79 813.42,404.94 Q805.71,404.08 796.44,404.08 Q769.01,404.08 756.31,419.83 Q743.66,435.58 742.27,468.54 L743.99,468.54 Q749.83,455.14 759.26,447.64 Q768.69,440.08 783.42,440.08 Q809.83,440.08 824.89,460.98 Q840.00,481.88 840.00,519.60 Q840.00,559.73 820.28,583.25 Q800.57,606.72 765.58,606.72 Q729.57,606.72 707.98,579.12 Q686.39,551.53 686.39,499.72 Z M764.24,556.30 Q771.10,556.30 775.54,547.73 Q779.99,539.15 779.99,520.67 Q779.99,489.11 764.56,489.11 Q757.01,489.11 752.56,497.36 Q748.11,505.56 748.11,517.24 Q748.11,533.31 752.24,544.83 Q756.36,556.30 764.24,556.30 Z"/>
  </clipPath>
</defs>
<rect width="1000" height="540" fill="none"/>
<g opacity="0.96">
  <path d="M55 138 C188 108 332 120 470 107 C626 93 802 105 953 82 L940 137 C760 145 605 158 435 153 C290 149 170 170 54 190 Z" fill="#b60000" opacity="0.92"/>
  <path d="M92 315 C248 287 404 305 552 289 C713 272 845 276 951 255 L941 318 C782 330 644 354 482 342 C330 331 200 348 78 380 Z" fill="#e21d17" opacity="0.88"/>
  <path d="M125 76 L930 45" stroke="#e21d17" stroke-width="10" stroke-linecap="square" opacity="0.85"/>
  <path d="M60 440 L886 488" stroke="#e21d17" stroke-width="7" opacity="0.65"/>
</g>
<g filter="url(#roughShadow)">
  <path d="M82.00,155.54 L82.00,69.21 L103.88,69.21 L103.88,137.52 L128.06,137.52 L128.06,155.54 L82.00,155.54 Z M171.46,155.54 L156.95,95.94 L156.46,95.94 Q156.95,101.14 157.26,106.88 Q157.56,112.62 157.56,117.70 L157.56,155.54 L137.50,155.54 L137.50,69.21 L168.80,69.21 L180.42,120.23 L180.78,120.23 L192.37,69.21 L223.45,69.21 L223.45,155.54 L202.90,155.54 L202.90,117.34 Q202.90,112.13 203.07,106.52 Q203.26,100.89 203.61,95.94 L203.26,95.94 L188.88,155.54 L171.46,155.54 Z M270.84,86.14 Q264.55,86.14 261.23,93.22 Q257.90,100.29 257.90,112.73 Q257.90,138.62 272.05,138.62 Q276.53,138.62 280.63,136.99 Q284.75,135.35 288.86,133.18 L288.86,151.92 Q284.27,154.33 279.19,155.54 Q274.11,156.75 268.67,156.75 Q251.86,156.75 243.58,145.15 Q235.31,133.53 235.31,112.62 Q235.31,99.44 239.35,89.35 Q243.39,79.26 251.01,73.63 Q258.64,68.00 269.27,68.00 Q274.96,68.00 280.76,69.51 Q286.56,71.02 292.00,74.05 L285.95,91.46 Q282.33,89.04 278.70,87.59 Q275.07,86.14 270.84,86.14 Z" fill="#090505" opacity="0.9"/>
  <path d="M207.60,235.75 Q207.60,270.14 193.83,288.92 Q180.05,307.67 151.89,307.67 Q124.34,307.67 110.17,288.83 Q96.00,269.95 96.00,235.53 Q96.00,201.32 109.96,182.66 Q123.95,164.00 151.89,164.00 Q180.24,164.00 193.92,182.66 Q207.60,201.32 207.60,235.75 Z M132.93,235.75 Q132.93,256.45 137.51,267.11 Q142.12,277.77 151.89,277.77 Q161.85,277.77 166.25,267.33 Q170.65,256.85 170.65,235.75 Q170.65,214.64 166.25,203.98 Q161.85,193.32 151.89,193.32 Q142.12,193.32 137.51,204.16 Q132.93,215.01 132.93,235.75 Z M269.36,166.14 Q294.59,166.14 305.92,174.75 Q317.25,183.36 317.25,200.96 Q317.25,213.27 311.57,221.30 Q305.92,229.30 298.68,231.62 L298.68,232.60 Q308.09,235.53 313.74,243.26 Q319.42,250.99 319.42,264.85 Q319.42,283.82 306.99,294.79 Q294.59,305.72 273.09,305.72 L226.97,305.72 L226.97,166.14 L269.36,166.14 Z M269.00,220.29 Q275.23,220.29 278.25,216.60 Q281.30,212.87 281.30,206.21 Q281.30,193.50 268.60,193.50 L262.34,193.50 L262.34,220.29 L269.00,220.29 Z M262.34,246.68 L262.34,277.77 L270.34,277.77 Q283.26,277.77 283.26,261.92 Q283.26,255.08 280.11,250.89 Q277.00,246.68 270.16,246.68 L262.34,246.68 Z M332.13,268.18 L332.13,238.46 L383.72,238.46 L383.72,268.18 L332.13,268.18 Z M476.78,263.30 Q476.78,275.82 471.50,285.90 Q466.21,295.95 455.95,301.81 Q445.69,307.67 430.84,307.67 Q419.88,307.67 411.66,305.72 Q403.48,303.76 394.28,298.88 L394.28,265.25 Q403.26,270.93 412.64,273.95 Q422.05,276.98 429.29,276.98 Q435.15,276.98 438.08,274.05 Q441.01,271.11 441.01,266.62 Q441.01,263.51 439.73,260.88 Q438.45,258.23 434.63,255.11 Q430.84,251.96 422.81,247.47 Q413.83,242.37 407.57,236.91 Q401.31,231.44 398.19,223.93 Q395.08,216.38 395.08,205.05 Q395.08,185.90 406.90,175.06 Q418.72,164.18 439.82,164.18 Q449.99,164.18 459.28,166.84 Q468.56,169.47 476.96,174.17 L467.19,203.28 Q452.13,194.30 440.40,194.30 Q435.15,194.30 432.89,196.83 Q430.63,199.37 430.63,203.28 Q430.63,206.82 432.10,209.45 Q433.56,212.07 437.87,215.13 Q442.17,218.15 450.57,223.04 Q463.28,230.46 470.03,239.56 Q476.78,248.63 476.78,263.30 Z M600.90,235.75 Q600.90,270.14 587.13,288.92 Q573.35,307.67 545.19,307.67 Q517.64,307.67 503.47,288.83 Q489.30,269.95 489.30,235.53 Q489.30,201.32 503.25,182.66 Q517.24,164.00 545.19,164.00 Q573.53,164.00 587.22,182.66 Q600.90,201.32 600.90,235.75 Z M526.22,235.75 Q526.22,256.45 530.80,267.11 Q535.42,277.77 545.19,277.77 Q555.15,277.77 559.54,267.33 Q563.94,256.85 563.94,235.75 Q563.94,214.64 559.54,203.98 Q555.15,193.32 545.19,193.32 Q535.42,193.32 530.80,204.16 Q526.22,215.01 526.22,235.75 Z M731.69,305.72 L688.68,305.72 L651.72,215.40 L650.93,215.40 Q651.54,223.62 652.03,233.49 Q652.52,243.35 652.52,250.80 L652.52,305.72 L620.26,305.72 L620.26,166.14 L663.06,166.14 L699.80,254.32 L700.59,254.32 Q700.20,246.89 699.71,237.43 Q699.22,227.93 699.22,220.50 L699.22,166.14 L731.69,166.14 L731.69,305.72 Z M811.62,305.72 L748.49,305.72 L748.49,286.75 L762.36,280.12 L762.36,191.76 L748.49,185.11 L748.49,166.14 L811.62,166.14 L811.62,185.11 L797.76,191.76 L797.76,280.12 L811.62,286.75 L811.62,305.72 Z M881.79,193.50 Q871.62,193.50 866.25,204.96 Q860.87,216.38 860.87,236.51 Q860.87,278.35 883.75,278.35 Q890.99,278.35 897.61,275.73 Q904.27,273.07 910.93,269.56 L910.93,299.86 Q903.51,303.76 895.29,305.72 Q887.08,307.67 878.28,307.67 Q851.10,307.67 837.72,288.92 Q824.34,270.14 824.34,236.33 Q824.34,215.01 830.88,198.70 Q837.41,182.39 849.72,173.29 Q862.06,164.18 879.26,164.18 Q888.45,164.18 897.83,166.63 Q907.20,169.07 916.00,173.96 L906.23,202.12 Q900.36,198.21 894.50,195.86 Q888.63,193.50 881.79,193.50 Z" fill="#090505" opacity="0.9"/>
  <path d="M325.95,617.29 L176.79,617.29 L176.79,575.82 L224.79,514.09 Q240.22,493.84 248.26,481.14 Q256.30,468.44 259.03,459.71 Q261.82,450.98 261.82,442.40 Q261.82,432.12 256.83,426.49 Q251.85,420.81 243.65,420.81 Q235.08,420.81 225.97,426.65 Q216.86,432.44 205.24,446.85 L174.00,408.11 Q190.13,388.56 207.76,378.81 Q225.44,369.00 251.15,369.00 Q272.10,369.00 288.18,377.57 Q304.31,386.15 313.41,401.42 Q322.52,416.69 322.52,436.94 Q322.52,453.39 317.70,467.64 Q312.88,481.84 302.43,497.97 Q291.98,514.09 274.52,536.01 L252.55,564.14 L252.23,565.85 L325.95,565.85 L325.95,617.29 Z M504.95,495.23 Q504.95,531.56 498.41,560.01 Q491.88,588.46 475.43,604.59 Q458.98,620.72 429.14,620.72 Q390.72,620.72 372.18,588.68 Q353.70,556.58 353.70,495.23 Q353.70,431.80 371.70,400.40 Q389.70,369.00 429.14,369.00 Q467.55,369.00 486.25,401.25 Q504.95,433.51 504.95,495.23 Z M415.10,495.23 Q415.10,533.60 417.45,551.60 Q419.87,569.60 429.14,569.60 Q438.73,569.60 441.30,551.60 Q443.87,533.60 443.87,495.23 Q443.87,457.83 441.30,438.97 Q438.73,420.11 429.14,420.11 Q420.24,420.11 417.67,438.97 Q415.10,457.83 415.10,495.23 Z M673.66,617.29 L524.50,617.29 L524.50,575.82 L572.50,514.09 Q587.93,493.84 595.97,481.14 Q604.01,468.44 606.74,459.71 Q609.53,450.98 609.53,442.40 Q609.53,432.12 604.54,426.49 Q599.56,420.81 591.36,420.81 Q582.79,420.81 573.68,426.65 Q564.57,432.44 552.95,446.85 L521.71,408.11 Q537.84,388.56 555.47,378.81 Q573.15,369.00 598.86,369.00 Q619.81,369.00 635.89,377.57 Q652.02,386.15 661.12,401.42 Q670.23,416.69 670.23,436.94 Q670.23,453.39 665.41,467.64 Q660.59,481.84 650.14,497.97 Q639.69,514.09 622.23,536.01 L600.26,564.14 L599.94,565.85 L673.66,565.85 L673.66,617.29 Z M700.39,513.72 Q700.39,486.29 704.83,460.57 Q709.28,434.85 720.75,414.11 Q732.27,393.38 753.32,381.22 Q774.43,369.00 807.71,369.00 Q815.58,369.00 824.69,369.70 Q833.80,370.39 841.68,371.79 L841.68,421.13 Q835.14,419.79 827.42,418.94 Q819.71,418.08 810.44,418.08 Q783.01,418.08 770.31,433.83 Q757.66,449.58 756.27,482.54 L757.99,482.54 Q763.83,469.14 773.26,461.64 Q782.69,454.08 797.42,454.08 Q823.83,454.08 838.89,474.98 Q854.00,495.88 854.00,533.60 Q854.00,573.73 834.28,597.25 Q814.57,620.72 779.58,620.72 Q743.57,620.72 721.98,593.12 Q700.39,565.53 700.39,513.72 Z M778.24,570.30 Q785.10,570.30 789.54,561.73 Q793.99,553.15 793.99,534.67 Q793.99,503.11 778.56,503.11 Q771.01,503.11 766.56,511.36 Q762.11,519.56 762.11,531.24 Q762.11,547.31 766.24,558.83 Q770.36,570.30 778.24,570.30 Z" fill="#090505" opacity="0.9"/>
  <path d="M72.00,145.54 L72.00,59.21 L93.88,59.21 L93.88,127.52 L118.06,127.52 L118.06,145.54 L72.00,145.54 Z M161.46,145.54 L146.95,85.94 L146.46,85.94 Q146.95,91.14 147.26,96.88 Q147.56,102.62 147.56,107.70 L147.56,145.54 L127.50,145.54 L127.50,59.21 L158.80,59.21 L170.42,110.23 L170.78,110.23 L182.37,59.21 L213.45,59.21 L213.45,145.54 L192.90,145.54 L192.90,107.34 Q192.90,102.13 193.07,96.52 Q193.26,90.89 193.61,85.94 L193.26,85.94 L178.88,145.54 L161.46,145.54 Z M260.84,76.14 Q254.55,76.14 251.23,83.22 Q247.90,90.29 247.90,102.73 Q247.90,128.62 262.05,128.62 Q266.53,128.62 270.63,126.99 Q274.75,125.35 278.86,123.18 L278.86,141.92 Q274.27,144.33 269.19,145.54 Q264.11,146.75 258.67,146.75 Q241.86,146.75 233.58,135.15 Q225.31,123.53 225.31,102.62 Q225.31,89.44 229.35,79.35 Q233.39,69.26 241.01,63.63 Q248.64,58.00 259.27,58.00 Q264.96,58.00 270.76,59.51 Q276.56,61.02 282.00,64.05 L275.95,81.46 Q272.33,79.04 268.70,77.59 Q265.07,76.14 260.84,76.14 Z" fill="#f6f1e9"/>
  <path d="M193.60,221.75 Q193.60,256.14 179.83,274.92 Q166.05,293.67 137.89,293.67 Q110.34,293.67 96.17,274.83 Q82.00,255.95 82.00,221.53 Q82.00,187.32 95.96,168.66 Q109.95,150.00 137.89,150.00 Q166.24,150.00 179.92,168.66 Q193.60,187.32 193.60,221.75 Z M118.93,221.75 Q118.93,242.45 123.51,253.11 Q128.12,263.77 137.89,263.77 Q147.85,263.77 152.25,253.33 Q156.65,242.85 156.65,221.75 Q156.65,200.64 152.25,189.98 Q147.85,179.32 137.89,179.32 Q128.12,179.32 123.51,190.16 Q118.93,201.01 118.93,221.75 Z M255.36,152.14 Q280.59,152.14 291.92,160.75 Q303.25,169.36 303.25,186.96 Q303.25,199.27 297.57,207.30 Q291.92,215.30 284.68,217.62 L284.68,218.60 Q294.09,221.53 299.74,229.26 Q305.42,236.99 305.42,250.85 Q305.42,269.82 292.99,280.79 Q280.59,291.72 259.09,291.72 L212.97,291.72 L212.97,152.14 L255.36,152.14 Z M255.00,206.29 Q261.23,206.29 264.25,202.60 Q267.30,198.87 267.30,192.21 Q267.30,179.50 254.60,179.50 L248.34,179.50 L248.34,206.29 L255.00,206.29 Z M248.34,232.68 L248.34,263.77 L256.34,263.77 Q269.26,263.77 269.26,247.92 Q269.26,241.08 266.11,236.89 Q263.00,232.68 256.16,232.68 L248.34,232.68 Z M318.13,254.18 L318.13,224.46 L369.72,224.46 L369.72,254.18 L318.13,254.18 Z M462.78,249.30 Q462.78,261.82 457.50,271.90 Q452.21,281.95 441.95,287.81 Q431.69,293.67 416.84,293.67 Q405.88,293.67 397.66,291.72 Q389.48,289.76 380.28,284.88 L380.28,251.25 Q389.26,256.93 398.64,259.95 Q408.05,262.98 415.29,262.98 Q421.15,262.98 424.08,260.05 Q427.01,257.11 427.01,252.62 Q427.01,249.51 425.73,246.88 Q424.45,244.23 420.63,241.11 Q416.84,237.96 408.81,233.47 Q399.83,228.37 393.57,222.91 Q387.31,217.44 384.19,209.93 Q381.08,202.38 381.08,191.05 Q381.08,171.90 392.90,161.06 Q404.72,150.18 425.82,150.18 Q435.99,150.18 445.28,152.84 Q454.56,155.47 462.96,160.17 L453.19,189.28 Q438.13,180.30 426.40,180.30 Q421.15,180.30 418.89,182.83 Q416.63,185.37 416.63,189.28 Q416.63,192.82 418.10,195.45 Q419.56,198.07 423.87,201.13 Q428.17,204.15 436.57,209.04 Q449.28,216.46 456.03,225.56 Q462.78,234.63 462.78,249.30 Z M586.90,221.75 Q586.90,256.14 573.13,274.92 Q559.35,293.67 531.19,293.67 Q503.64,293.67 489.47,274.83 Q475.30,255.95 475.30,221.53 Q475.30,187.32 489.25,168.66 Q503.24,150.00 531.19,150.00 Q559.53,150.00 573.22,168.66 Q586.90,187.32 586.90,221.75 Z M512.22,221.75 Q512.22,242.45 516.80,253.11 Q521.42,263.77 531.19,263.77 Q541.15,263.77 545.54,253.33 Q549.94,242.85 549.94,221.75 Q549.94,200.64 545.54,189.98 Q541.15,179.32 531.19,179.32 Q521.42,179.32 516.80,190.16 Q512.22,201.01 512.22,221.75 Z M717.69,291.72 L674.68,291.72 L637.72,201.40 L636.93,201.40 Q637.54,209.62 638.03,219.49 Q638.52,229.35 638.52,236.80 L638.52,291.72 L606.26,291.72 L606.26,152.14 L649.06,152.14 L685.80,240.32 L686.59,240.32 Q686.20,232.89 685.71,223.43 Q685.22,213.93 685.22,206.50 L685.22,152.14 L717.69,152.14 L717.69,291.72 Z M797.62,291.72 L734.49,291.72 L734.49,272.75 L748.36,266.12 L748.36,177.76 L734.49,171.11 L734.49,152.14 L797.62,152.14 L797.62,171.11 L783.76,177.76 L783.76,266.12 L797.62,272.75 L797.62,291.72 Z M867.79,179.50 Q857.62,179.50 852.25,190.96 Q846.87,202.38 846.87,222.51 Q846.87,264.35 869.75,264.35 Q876.99,264.35 883.61,261.73 Q890.27,259.07 896.93,255.56 L896.93,285.86 Q889.51,289.76 881.29,291.72 Q873.08,293.67 864.28,293.67 Q837.10,293.67 823.72,274.92 Q810.34,256.14 810.34,222.33 Q810.34,201.01 816.88,184.70 Q823.41,168.39 835.72,159.29 Q848.06,150.18 865.26,150.18 Q874.45,150.18 883.83,152.63 Q893.20,155.07 902.00,159.96 L892.23,188.12 Q886.36,184.21 880.50,181.86 Q874.63,179.50 867.79,179.50 Z" fill="#f6f1e9"/>
  <path d="M311.95,603.29 L162.79,603.29 L162.79,561.82 L210.79,500.09 Q226.22,479.84 234.26,467.14 Q242.30,454.44 245.03,445.71 Q247.82,436.98 247.82,428.40 Q247.82,418.12 242.83,412.49 Q237.85,406.81 229.65,406.81 Q221.08,406.81 211.97,412.65 Q202.86,418.44 191.24,432.85 L160.00,394.11 Q176.13,374.56 193.76,364.81 Q211.44,355.00 237.15,355.00 Q258.10,355.00 274.18,363.57 Q290.31,372.15 299.41,387.42 Q308.52,402.69 308.52,422.94 Q308.52,439.39 303.70,453.64 Q298.88,467.84 288.43,483.97 Q277.98,500.09 260.52,522.01 L238.55,550.14 L238.23,551.85 L311.95,551.85 L311.95,603.29 Z M490.95,481.23 Q490.95,517.56 484.41,546.01 Q477.88,574.46 461.43,590.59 Q444.98,606.72 415.14,606.72 Q376.72,606.72 358.18,574.68 Q339.70,542.58 339.70,481.23 Q339.70,417.80 357.70,386.40 Q375.70,355.00 415.14,355.00 Q453.55,355.00 472.25,387.25 Q490.95,419.51 490.95,481.23 Z M401.10,481.23 Q401.10,519.60 403.45,537.60 Q405.87,555.60 415.14,555.60 Q424.73,555.60 427.30,537.60 Q429.87,519.60 429.87,481.23 Q429.87,443.83 427.30,424.97 Q424.73,406.11 415.14,406.11 Q406.24,406.11 403.67,424.97 Q401.10,443.83 401.10,481.23 Z M659.66,603.29 L510.50,603.29 L510.50,561.82 L558.50,500.09 Q573.93,479.84 581.97,467.14 Q590.01,454.44 592.74,445.71 Q595.53,436.98 595.53,428.40 Q595.53,418.12 590.54,412.49 Q585.56,406.81 577.36,406.81 Q568.79,406.81 559.68,412.65 Q550.57,418.44 538.95,432.85 L507.71,394.11 Q523.84,374.56 541.47,364.81 Q559.15,355.00 584.86,355.00 Q605.81,355.00 621.89,363.57 Q638.02,372.15 647.12,387.42 Q656.23,402.69 656.23,422.94 Q656.23,439.39 651.41,453.64 Q646.59,467.84 636.14,483.97 Q625.69,500.09 608.23,522.01 L586.26,550.14 L585.94,551.85 L659.66,551.85 L659.66,603.29 Z M686.39,499.72 Q686.39,472.29 690.83,446.57 Q695.28,420.85 706.75,400.11 Q718.27,379.38 739.32,367.22 Q760.43,355.00 793.71,355.00 Q801.58,355.00 810.69,355.70 Q819.80,356.39 827.68,357.79 L827.68,407.13 Q821.14,405.79 813.42,404.94 Q805.71,404.08 796.44,404.08 Q769.01,404.08 756.31,419.83 Q743.66,435.58 742.27,468.54 L743.99,468.54 Q749.83,455.14 759.26,447.64 Q768.69,440.08 783.42,440.08 Q809.83,440.08 824.89,460.98 Q840.00,481.88 840.00,519.60 Q840.00,559.73 820.28,583.25 Q800.57,606.72 765.58,606.72 Q729.57,606.72 707.98,579.12 Q686.39,551.53 686.39,499.72 Z M764.24,556.30 Q771.10,556.30 775.54,547.73 Q779.99,539.15 779.99,520.67 Q779.99,489.11 764.56,489.11 Q757.01,489.11 752.56,497.36 Q748.11,505.56 748.11,517.24 Q748.11,533.31 752.24,544.83 Q756.36,556.30 764.24,556.30 Z" fill="#e21d17"/>
</g>
<g clip-path="url(#textClip)">
  <rect x="897" y="418" width="11" height="10" rx="1" fill="#080404" opacity="0.57" transform="rotate(23 902.5 423.0)"/><rect x="85" y="199" width="36" height="8" rx="1" fill="#080404" opacity="0.80" transform="rotate(-5 103.0 203.0)"/><rect x="364" y="375" width="18" height="9" rx="1" fill="#080404" opacity="0.69" transform="rotate(9 373.0 379.5)"/><rect x="181" y="223" width="22" height="13" rx="1" fill="#080404" opacity="0.76" transform="rotate(14 192.0 229.5)"/><rect x="519" y="296" width="11" height="8" rx="1" fill="#080404" opacity="0.81" transform="rotate(1 524.5 300.0)"/><rect x="540" y="483" width="12" height="6" rx="1" fill="#080404" opacity="0.74" transform="rotate(19 546.0 486.0)"/><rect x="383" y="174" width="8" height="12" rx="1" fill="#080404" opacity="0.82" transform="rotate(-13 387.0 180.0)"/><rect x="454" y="374" width="18" height="11" rx="1" fill="#080404" opacity="0.74" transform="rotate(11 463.0 379.5)"/><rect x="799" y="382" width="7" height="13" rx="1" fill="#080404" opacity="0.56" transform="rotate(-2 802.5 388.5)"/><rect x="525" y="280" width="28" height="12" rx="1" fill="#080404" opacity="0.49" transform="rotate(-18 539.0 286.0)"/><rect x="779" y="393" width="18" height="4" rx="1" fill="#080404" opacity="0.75" transform="rotate(13 788.0 395.0)"/><rect x="404" y="225" width="30" height="10" rx="1" fill="#080404" opacity="0.51" transform="rotate(-11 419.0 230.0)"/><rect x="299" y="482" width="6" height="6" rx="1" fill="#080404" opacity="0.53" transform="rotate(24 302.0 485.0)"/><rect x="748" y="295" width="25" height="8" rx="1" fill="#080404" opacity="0.69" transform="rotate(-1 760.5 299.0)"/><rect x="381" y="189" width="37" height="3" rx="1" fill="#080404" opacity="0.64" transform="rotate(-14 399.5 190.5)"/><rect x="849" y="328" width="12" height="10" rx="1" fill="#080404" opacity="0.81" transform="rotate(-10 855.0 333.0)"/><rect x="176" y="433" width="34" height="10" rx="1" fill="#080404" opacity="0.82" transform="rotate(25 193.0 438.0)"/><rect x="900" y="164" width="33" height="10" rx="1" fill="#080404" opacity="0.77" transform="rotate(-6 916.5 169.0)"/><rect x="503" y="168" width="18" height="13" rx="1" fill="#080404" opacity="0.65" transform="rotate(-8 512.0 174.5)"/><rect x="824" y="213" width="7" height="3" rx="1" fill="#080404" opacity="0.51" transform="rotate(9 827.5 214.5)"/><rect x="688" y="309" width="18" height="7" rx="1" fill="#080404" opacity="0.65" transform="rotate(7 697.0 312.5)"/><rect x="614" y="255" width="32" height="9" rx="1" fill="#080404" opacity="0.67" transform="rotate(14 630.0 259.5)"/><rect x="701" y="368" width="36" height="10" rx="1" fill="#080404" opacity="0.77" transform="rotate(-16 719.0 373.0)"/><rect x="593" y="281" width="35" height="8" rx="1" fill="#080404" opacity="0.75" transform="rotate(-2 610.5 285.0)"/><rect x="719" y="317" width="23" height="8" rx="1" fill="#080404" opacity="0.63" transform="rotate(16 730.5 321.0)"/><rect x="584" y="205" width="24" height="11" rx="1" fill="#080404" opacity="0.73" transform="rotate(-25 596.0 210.5)"/><rect x="143" y="218" width="7" height="12" rx="1" fill="#080404" opacity="0.71" transform="rotate(24 146.5 224.0)"/><rect x="783" y="314" width="29" height="10" rx="1" fill="#080404" opacity="0.48" transform="rotate(12 797.5 319.0)"/><rect x="282" y="204" width="23" height="12" rx="1" fill="#080404" opacity="0.64" transform="rotate(-25 293.5 210.0)"/><rect x="886" y="393" width="37" height="4" rx="1" fill="#080404" opacity="0.55" transform="rotate(5 904.5 395.0)"/><rect x="464" y="310" width="15" height="13" rx="1" fill="#080404" opacity="0.56" transform="rotate(15 471.5 316.5)"/><rect x="410" y="198" width="8" height="13" rx="1" fill="#080404" opacity="0.49" transform="rotate(17 414.0 204.5)"/><rect x="192" y="148" width="36" height="10" rx="1" fill="#080404" opacity="0.85" transform="rotate(21 210.0 153.0)"/><rect x="729" y="140" width="14" height="12" rx="1" fill="#080404" opacity="0.52" transform="rotate(-20 736.0 146.0)"/><rect x="731" y="260" width="34" height="10" rx="1" fill="#080404" opacity="0.46" transform="rotate(19 748.0 265.0)"/><rect x="737" y="195" width="18" height="10" rx="1" fill="#080404" opacity="0.80" transform="rotate(5 746.0 200.0)"/><rect x="542" y="410" width="23" height="10" rx="1" fill="#080404" opacity="0.71" transform="rotate(20 553.5 415.0)"/><rect x="383" y="311" width="24" height="8" rx="1" fill="#080404" opacity="0.49" transform="rotate(-23 395.0 315.0)"/><rect x="367" y="268" width="23" height="10" rx="1" fill="#080404" opacity="0.65" transform="rotate(2 378.5 273.0)"/><rect x="465" y="141" width="11" height="6" rx="1" fill="#080404" opacity="0.74" transform="rotate(13 470.5 144.0)"/><rect x="633" y="141" width="17" height="8" rx="1" fill="#080404" opacity="0.46" transform="rotate(-2 641.5 145.0)"/><rect x="842" y="232" width="33" height="8" rx="1" fill="#080404" opacity="0.52" transform="rotate(-21 858.5 236.0)"/><rect x="777" y="183" width="31" height="11" rx="1" fill="#080404" opacity="0.66" transform="rotate(-17 792.5 188.5)"/><rect x="591" y="452" width="10" height="5" rx="1" fill="#080404" opacity="0.61" transform="rotate(-21 596.0 454.5)"/><rect x="116" y="220" width="15" height="5" rx="1" fill="#080404" opacity="0.78" transform="rotate(-7 123.5 222.5)"/><rect x="604" y="416" width="30" height="6" rx="1" fill="#080404" opacity="0.76" transform="rotate(-11 619.0 419.0)"/><rect x="817" y="189" width="32" height="5" rx="1" fill="#080404" opacity="0.59" transform="rotate(23 833.0 191.5)"/><rect x="331" y="412" width="6" height="12" rx="1" fill="#080404" opacity="0.53" transform="rotate(-1 334.0 418.0)"/><rect x="418" y="320" width="34" height="3" rx="1" fill="#080404" opacity="0.83" transform="rotate(0 435.0 321.5)"/><rect x="628" y="407" width="14" height="6" rx="1" fill="#080404" opacity="0.69" transform="rotate(16 635.0 410.0)"/><rect x="845" y="315" width="23" height="13" rx="1" fill="#080404" opacity="0.89" transform="rotate(-14 856.5 321.5)"/><rect x="253" y="478" width="14" height="9" rx="1" fill="#080404" opacity="0.48" transform="rotate(-21 260.0 482.5)"/><rect x="125" y="366" width="9" height="4" rx="1" fill="#080404" opacity="0.77" transform="rotate(16 129.5 368.0)"/><rect x="187" y="469" width="29" height="12" rx="1" fill="#080404" opacity="0.48" transform="rotate(-23 201.5 475.0)"/><rect x="315" y="333" width="20" height="12" rx="1" fill="#080404" opacity="0.87" transform="rotate(19 325.0 339.0)"/><rect x="385" y="172" width="36" height="4" rx="1" fill="#080404" opacity="0.71" transform="rotate(21 403.0 174.0)"/><rect x="145" y="211" width="34" height="4" rx="1" fill="#080404" opacity="0.77" transform="rotate(-18 162.0 213.0)"/><rect x="267" y="150" width="7" height="13" rx="1" fill="#080404" opacity="0.64" transform="rotate(21 270.5 156.5)"/><rect x="810" y="271" width="22" height="10" rx="1" fill="#080404" opacity="0.54" transform="rotate(-11 821.0 276.0)"/><rect x="754" y="399" width="19" height="7" rx="1" fill="#080404" opacity="0.46" transform="rotate(12 763.5 402.5)"/><rect x="624" y="475" width="27" height="11" rx="1" fill="#080404" opacity="0.71" transform="rotate(-20 637.5 480.5)"/><rect x="745" y="141" width="29" height="8" rx="1" fill="#080404" opacity="0.50" transform="rotate(19 759.5 145.0)"/><rect x="866" y="139" width="29" height="8" rx="1" fill="#080404" opacity="0.76" transform="rotate(2 880.5 143.0)"/><rect x="137" y="301" width="14" height="3" rx="1" fill="#080404" opacity="0.60" transform="rotate(-25 144.0 302.5)"/><rect x="581" y="126" width="35" height="7" rx="1" fill="#080404" opacity="0.75" transform="rotate(-20 598.5 129.5)"/><rect x="715" y="264" width="20" height="5" rx="1" fill="#080404" opacity="0.64" transform="rotate(-17 725.0 266.5)"/><rect x="271" y="249" width="30" height="12" rx="1" fill="#080404" opacity="0.70" transform="rotate(2 286.0 255.0)"/><rect x="726" y="370" width="23" height="7" rx="1" fill="#080404" opacity="0.58" transform="rotate(-17 737.5 373.5)"/><rect x="118" y="223" width="34" height="4" rx="1" fill="#080404" opacity="0.71" transform="rotate(-14 135.0 225.0)"/><rect x="87" y="387" width="16" height="4" rx="1" fill="#080404" opacity="0.72" transform="rotate(-16 95.0 389.0)"/><rect x="570" y="373" width="36" height="6" rx="1" fill="#080404" opacity="0.85" transform="rotate(16 588.0 376.0)"/><rect x="243" y="359" width="6" height="8" rx="1" fill="#080404" opacity="0.56" transform="rotate(1 246.0 363.0)"/><rect x="221" y="271" width="29" height="12" rx="1" fill="#080404" opacity="0.61" transform="rotate(18 235.5 277.0)"/><rect x="90" y="281" width="17" height="4" rx="1" fill="#080404" opacity="0.73" transform="rotate(1 98.5 283.0)"/><rect x="871" y="243" width="11" height="6" rx="1" fill="#080404" opacity="0.64" transform="rotate(-1 876.5 246.0)"/><rect x="856" y="200" width="9" height="11" rx="1" fill="#080404" opacity="0.80" transform="rotate(8 860.5 205.5)"/><rect x="584" y="311" width="27" height="12" rx="1" fill="#080404" opacity="0.84" transform="rotate(-1 597.5 317.0)"/><rect x="750" y="464" width="10" height="7" rx="1" fill="#080404" opacity="0.47" transform="rotate(-17 755.0 467.5)"/><rect x="688" y="433" width="15" height="11" rx="1" fill="#080404" opacity="0.50" transform="rotate(7 695.5 438.5)"/><rect x="789" y="169" width="11" height="13" rx="1" fill="#080404" opacity="0.51" transform="rotate(23 794.5 175.5)"/><rect x="444" y="298" width="16" height="6" rx="1" fill="#080404" opacity="0.88" transform="rotate(-14 452.0 301.0)"/><rect x="315" y="446" width="14" height="10" rx="1" fill="#080404" opacity="0.87" transform="rotate(22 322.0 451.0)"/><rect x="722" y="181" width="14" height="10" rx="1" fill="#080404" opacity="0.71" transform="rotate(-13 729.0 186.0)"/><rect x="836" y="199" width="27" height="13" rx="1" fill="#080404" opacity="0.86" transform="rotate(-9 849.5 205.5)"/><rect x="365" y="125" width="9" height="13" rx="1" fill="#080404" opacity="0.67" transform="rotate(-24 369.5 131.5)"/><rect x="730" y="358" width="26" height="3" rx="1" fill="#080404" opacity="0.57" transform="rotate(-25 743.0 359.5)"/><rect x="823" y="176" width="30" height="12" rx="1" fill="#080404" opacity="0.50" transform="rotate(-4 838.0 182.0)"/><rect x="467" y="197" width="15" height="8" rx="1" fill="#080404" opacity="0.79" transform="rotate(17 474.5 201.0)"/><rect x="846" y="332" width="7" height="11" rx="1" fill="#080404" opacity="0.50" transform="rotate(-16 849.5 337.5)"/><rect x="541" y="316" width="6" height="5" rx="1" fill="#080404" opacity="0.70" transform="rotate(18 544.0 318.5)"/><rect x="356" y="161" width="36" height="4" rx="1" fill="#080404" opacity="0.77" transform="rotate(0 374.0 163.0)"/><rect x="898" y="403" width="16" height="10" rx="1" fill="#080404" opacity="0.56" transform="rotate(-4 906.0 408.0)"/><rect x="639" y="302" width="24" height="11" rx="1" fill="#080404" opacity="0.85" transform="rotate(19 651.0 307.5)"/><rect x="548" y="409" width="8" height="11" rx="1" fill="#080404" opacity="0.56" transform="rotate(22 552.0 414.5)"/><rect x="721" y="126" width="37" height="11" rx="1" fill="#080404" opacity="0.56" transform="rotate(9 739.5 131.5)"/>
</g>
<path d="M53 503 H947" stroke="#f6f1e9" stroke-width="3" opacity="0.5"/>
</svg>